<?xml version="1.0" encoding="UTF-8" standalone="no"?>
<!-- Created with Inkscape (http://www.inkscape.org/) -->

<svg
   xmlns:dc="http://purl.org/dc/elements/1.1/"
   xmlns:cc="http://creativecommons.org/ns#"
   xmlns:rdf="http://www.w3.org/1999/02/22-rdf-syntax-ns#"
   xmlns:svg="http://www.w3.org/2000/svg"
   xmlns="http://www.w3.org/2000/svg"
   xmlns:sodipodi="http://sodipodi.sourceforge.net/DTD/sodipodi-0.dtd"
   xmlns:inkscape="http://www.inkscape.org/namespaces/inkscape"
   width="920"
   height="383.36606"
   id="svg2"
   sodipodi:version="0.32"
   inkscape:version="0.48.3.1 r9886"
   sodipodi:docname="pid.svg"
   inkscape:output_extension="org.inkscape.output.svg.inkscape"
   version="1.0">
  <defs
     id="defs4">
    <linearGradient
       id="linearGradient3262">
      <stop
         style="stop-color:#ffffff;stop-opacity:1;"
         offset="0"
         id="stop3264" />
      <stop
         style="stop-color:#ffffff;stop-opacity:0;"
         offset="1"
         id="stop3266" />
    </linearGradient>
    <marker
       inkscape:stockid="Arrow2Lend"
       orient="auto"
       refY="0"
       refX="0"
       id="Arrow2Lend"
       style="overflow:visible">
      <path
         id="path4339"
         style="font-size:12px;fill-rule:evenodd;stroke-width:0.625;stroke-linejoin:round"
         d="M 8.7185878,4.0337352 L -2.2072895,0.016013256 L 8.7185884,-4.0017078 C 6.97309,-1.6296469 6.9831476,1.6157441 8.7185878,4.0337352 z"
         transform="matrix(-1.1,0,0,-1.1,-1.1,0)" />
    </marker>
    <inkscape:perspective
       sodipodi:type="inkscape:persp3d"
       inkscape:vp_x="0 : 526.18109 : 1"
       inkscape:vp_y="0 : 1000 : 0"
       inkscape:vp_z="744.09448 : 526.18109 : 1"
       inkscape:persp3d-origin="372.04724 : 350.78739 : 1"
       id="perspective10" />
  </defs>
  <sodipodi:namedview
     id="base"
     pagecolor="#ffffff"
     bordercolor="#666666"
     borderopacity="1.0"
     inkscape:pageopacity="0.0"
     inkscape:pageshadow="2"
     inkscape:zoom="1"
     inkscape:cx="483.76738"
     inkscape:cy="175.09779"
     inkscape:document-units="px"
     inkscape:current-layer="layer1"
     showgrid="false"
     inkscape:window-width="1119"
     inkscape:window-height="768"
     inkscape:window-x="185"
     inkscape:window-y="33"
     showguides="true"
     inkscape:guide-bbox="true"
     inkscape:snap-global="false"
     inkscape:window-maximized="0">
    <inkscape:grid
       type="xygrid"
       id="grid6125"
       visible="true"
       enabled="true" />
    <sodipodi:guide
       orientation="0,1"
       position="657.96126,694.20148"
       id="guide6171" />
    <sodipodi:guide
       orientation="1,0"
       position="862,1092"
       id="guide3526" />
  </sodipodi:namedview>
  <metadata
     id="metadata7">
    <rdf:RDF>
      <cc:Work
         rdf:about="">
        <dc:format>image/svg+xml</dc:format>
        <dc:type
           rdf:resource="http://purl.org/dc/dcmitype/StillImage" />
      </cc:Work>
    </rdf:RDF>
  </metadata>
  <g
     inkscape:groupmode="layer"
     id="layer2"
     inkscape:label="2"
     transform="translate(-141.46852,-409.63668)" />
  <g
     inkscape:label="Capa 1"
     inkscape:groupmode="layer"
     id="layer1"
     transform="translate(-141.46852,-409.63668)">
    <path
       sodipodi:type="arc"
       style="fill:#000000;fill-opacity:1;stroke:#000000;stroke-width:9.51715279;stroke-linecap:round;stroke-linejoin:round;stroke-miterlimit:4;stroke-opacity:1;stroke-dasharray:none;stroke-dashoffset:0"
       id="path2434"
       sodipodi:cx="217.44653"
       sodipodi:cy="268.04639"
       sodipodi:rx="100.55331"
       sodipodi:ry="100.55331"
       d="m 317.99984,268.04639 a 100.55331,100.55331 0 1 1 -201.10661,0 100.55331,100.55331 0 1 1 201.10661,0 z"
       transform="matrix(0.27761556,0,0,0.24909851,194.80149,456.75162)" />
    <path
       sodipodi:type="arc"
       style="fill:#ffdd55;fill-opacity:1;stroke:#000000;stroke-width:9.51715279;stroke-linecap:round;stroke-linejoin:round;stroke-miterlimit:4;stroke-opacity:1;stroke-dasharray:none;stroke-dashoffset:0"
       id="path2432"
       sodipodi:cx="217.44653"
       sodipodi:cy="268.04639"
       sodipodi:rx="100.55331"
       sodipodi:ry="100.55331"
       d="m 317.99984,268.04639 a 100.55331,100.55331 0 1 1 -201.10661,0 100.55331,100.55331 0 1 1 201.10661,0 z"
       transform="matrix(0.27761556,0,0,0.24909851,193.16872,455.55634)" />
    <path
       style="font-size:56px;font-style:normal;font-variant:normal;font-weight:normal;font-stretch:normal;text-align:start;line-height:100%;writing-mode:lr-tb;text-anchor:start;fill:#000000;fill-opacity:1;stroke:none;font-family:Verdana;-inkscape-font-specification:Verdana"
       d="m 256.57046,521.9293 c 0.0308,0.0553 0.0205,0.11053 -0.0308,0.16578 l -9.80808,10.55518 13.56501,0 c 0.041,0 0.077,-0.01 0.10779,-0.0276 0.0308,-0.0184 0.0462,-0.0461 0.0462,-0.0829 l 0.72367,-2.85984 c -3e-5,-0.0185 0.0154,-0.0414 0.0462,-0.0691 0.0308,-0.0276 0.077,-0.0414 0.13857,-0.0414 l 0.92385,0 c 0.12315,0 0.18474,0.0461 0.18477,0.13816 l 0,4.94601 c -3e-5,0.10134 -0.0616,0.15196 -0.18477,0.15196 l -18.80012,0 c -0.10264,0 -0.15396,-0.0506 -0.15396,-0.15196 l 0,-0.56645 c 0,-0.0368 0.0103,-0.0644 0.0308,-0.0829 l 10.2546,-11.06635 c 0.0411,-0.0553 0.0411,-0.11051 0,-0.16578 l -9.74649,-11.85384 c 0,-0.0185 -0.005,-0.0323 -0.0154,-0.0414 -0.0103,-0.01 -0.0154,-0.023 -0.0154,-0.0414 l 0,-0.59408 c 0,-0.092 0.0513,-0.13814 0.15398,-0.13815 l 17.59912,0 c 0.12316,10e-6 0.18474,0.0461 0.18476,0.13815 l 0,4.43483 c -2e-5,0.10134 -0.0616,0.15199 -0.18476,0.15197 l -0.86226,0 c -0.0616,2e-5 -0.1078,-0.01 -0.13857,-0.0276 -0.0308,-0.0185 -0.0462,-0.0461 -0.0462,-0.0829 l -0.93924,-3.20524 c -10e-6,-0.0368 -0.0154,-0.0644 -0.0462,-0.0829 -0.0308,-0.0185 -0.0565,-0.0276 -0.077,-0.0276 l -11.60957,0 8.69948,10.52755 0,0 z"
       id="text2425"
       inkscape:connector-curvature="0" />
    <text
       xml:space="preserve"
       style="font-size:42.13922882px;font-style:normal;font-variant:normal;font-weight:normal;font-stretch:normal;text-align:start;line-height:100%;writing-mode:lr-tb;text-anchor:start;fill:#000000;fill-opacity:1;stroke:none;font-family:Verdana;-inkscape-font-specification:Verdana"
       x="120.09434"
       y="473.60486"
       id="text3836"
       sodipodi:linespacing="100%"
       transform="scale(1.0552452,0.94764706)"><tspan
         sodipodi:role="line"
         id="tspan3838"
         x="120.09434"
         y="473.60486"
         style="font-size:42.13922882px;font-style:normal;font-variant:normal;font-weight:normal;font-stretch:normal;text-align:start;line-height:100%;writing-mode:lr-tb;text-anchor:start;font-family:Courier New;-inkscape-font-specification:Courier New" /></text>
    <path
       inkscape:connector-curvature="0"
       id="path6123"
       d="m 352.38891,443.62505 0,1.46537 c 19.50746,0 29.2559,0 34.13276,0 2.43843,0 3.65979,0 4.26939,0 0.3048,0 0.46027,0 0.53647,0 0.0381,0 0.0575,0 0.067,0 l 0,-0.74273 0,-0.72264 c 0,0 0.009,-2e-5 -39.00567,0 z"
       style="fill:#000000;fill-opacity:1;fill-rule:evenodd;stroke:none" />
    <path
       inkscape:connector-curvature="0"
       id="path8181"
       style="font-size:12px;fill-rule:evenodd;stroke-width:0.625;stroke-linejoin:round"
       d="m 373.80765,437.79907 19.77237,6.52943 -19.77237,6.52944 c 3.1588,-3.85498 3.14059,-9.12925 0,-13.05887 z" />
    <path
       inkscape:connector-curvature="0"
       id="path6157"
       d="m 649.68145,521.67126 0,1.48544 c 14.70991,0 22.07556,0 25.75303,0 1.83874,0 2.74861,0 3.2083,0 0.22985,0 0.35442,0 0.41187,0 0.0288,0 0.0361,0 0.0434,0 0.003,0 0.0208,0 0.0216,0 l 0,-0.74272 0,-0.74272 c 0,0 -0.0184,0 -29.43824,0 z"
       style="fill:#000000;fill-opacity:1;fill-rule:evenodd;stroke:none" />
    <path
       inkscape:connector-curvature="0"
       id="path8175"
       style="font-size:12px;fill-rule:evenodd;stroke-width:0.625;stroke-linejoin:round"
       d="m 662.05385,515.85984 19.17516,6.52944 -19.17516,6.52944 c 3.06338,-3.85497 3.04574,-9.12925 0,-13.05888 z" />
    <path
       style="fill:#000000;fill-opacity:1;fill-rule:evenodd;stroke:none"
       d="m 282.75987,521.32998 c 0,0 0,0.74272 0,0.74272 l 0,0.74273 c 0,0 0.007,-2e-5 70.41138,0 l 0,-1.48545 c -35.20224,0 -52.80382,0 -61.60437,0 -4.40028,0 -6.5893,0 -7.68937,0 -0.55004,0 -0.84602,0 -0.98353,0 -0.0688,0 -0.0946,0 -0.11177,0 -0.009,0 -0.0202,0 -0.0223,0 z"
       id="path7235"
       inkscape:connector-curvature="0" />
    <path
       style="font-size:28px;font-style:normal;font-weight:normal;fill:#000000;fill-opacity:1;stroke:none;font-family:Bitstream Vera Sans"
       d="m 214.89388,543.08968 0,-4.7206 -5.22178,0 0,-1.97279 5.22178,0 0,-4.68539 2.2248,0 0,4.68539 5.22176,0 0,1.97279 -5.22176,0 0,4.7206 -2.2248,0 z"
       id="text7231"
       inkscape:connector-curvature="0" />
    <path
       inkscape:connector-curvature="0"
       id="path2446"
       d="m 143.56887,521.10919 0,1.46538 c 40.379,10e-6 60.56251,0 70.65726,0 5.04737,0 7.56751,0 8.82936,0 0.63093,0 0.95991,0 1.11765,0 0.0788,0 0.11439,0 0.13411,0 0.01,0 0.0199,0 0.0223,0 l 0,-0.72265 0,-0.74273 c 0,0 -0.003,10e-6 -80.76073,0 z"
       style="fill:#000000;fill-opacity:1;fill-rule:evenodd;stroke:none" />
    <path
       inkscape:connector-curvature="0"
       id="path8167"
       style="font-size:12px;fill-rule:evenodd;stroke-width:0.625;stroke-linejoin:round"
       d="m 206.73466,515.28819 19.77238,6.52945 -19.77238,6.52943 c 3.1588,-3.85497 3.1406,-9.12926 0,-13.05888 z" />
    <path
       style="font-size:56px;font-style:normal;font-variant:normal;font-weight:normal;font-stretch:normal;text-align:start;line-height:100%;writing-mode:lr-tb;text-anchor:start;fill:#000000;fill-opacity:1;stroke:none;font-family:Verdana;-inkscape-font-specification:Verdana"
       d="m 159.83687,509.74137 c 0,-0.24167 0.0238,-0.47622 0.0713,-0.70369 l 0.95061,-5.06444 c 0.008,-0.0426 0.0139,-0.0817 0.0178,-0.11729 0.004,-0.0355 0.006,-0.0852 0.006,-0.14927 -1e-5,-0.29141 -0.16241,-0.47623 -0.48718,-0.55442 -0.3248,-0.0781 -0.72882,-0.11728 -1.21204,-0.11729 l 0.11884,-0.725 3.32711,-0.23456 0.27331,0 c -0.0317,0.14216 -0.0475,0.21324 -0.0475,0.21323 l -1.27143,6.79169 c -1e-5,0.0995 -0.0238,0.28432 -0.0713,0.55443 -0.0475,0.2701 -0.0713,0.47267 -0.0713,0.60773 -1e-5,0.46201 0.16239,0.76944 0.48718,0.92226 0.32479,0.15282 0.77238,0.22923 1.34274,0.22923 0.58621,0 1.12091,-0.15815 1.60415,-0.47446 0.48321,-0.3163 0.88128,-0.72679 1.19421,-1.23146 0.31288,-0.50466 0.52084,-1.01999 0.62382,-1.54599 l 0.78426,-4.16883 c 0.008,-0.0426 0.0138,-0.0817 0.0178,-0.11729 0.004,-0.0355 0.006,-0.0852 0.006,-0.14927 -2e-5,-0.29141 -0.16243,-0.47623 -0.4872,-0.55442 -0.3248,-0.0781 -0.72881,-0.11728 -1.21203,-0.11729 l 0.11883,-0.725 3.32713,-0.23456 0.27329,0 c -0.0317,0.14216 -0.0475,0.21324 -0.0475,0.21323 l -1.4378,7.75127 c -0.0159,0.064 -0.0238,0.15282 -0.0238,0.26654 -1e-5,0.29144 0.1604,0.47625 0.48124,0.55443 0.32082,0.0782 0.72682,0.11728 1.21797,0.11728 l -0.14259,0.72502 -3.52913,0.21324 c 0.0317,-0.14216 0.0475,-0.21324 0.0475,-0.21324 l 0.29707,-1.5993 c -0.40403,0.54732 -0.89319,0.98624 -1.4675,1.31676 -0.57432,0.33052 -1.19026,0.49578 -1.84775,0.49578 -0.97437,0 -1.75665,-0.15816 -2.3468,-0.47446 -0.59018,-0.31631 -0.88526,-0.88317 -0.88526,-1.70059 l 0,0 z m 16.69503,7.39943 c -1.15658,-0.95249 -2.00618,-2.11818 -2.54881,-3.49714 -0.54264,-1.37895 -0.81397,-2.85386 -0.81397,-4.42472 0,-1.31497 0.15845,-2.62997 0.47531,-3.94494 0.31687,-1.31497 0.78425,-2.58553 1.40215,-3.81166 0.61789,-1.22612 1.39026,-2.36341 2.31712,-3.41185 0.92683,-1.0484 1.98042,-1.94223 3.16075,-2.68148 0.0317,-0.0284 0.0713,-0.0426 0.11883,-0.0426 l 0.23766,0 c 0.11881,2e-5 0.17823,0.0569 0.17824,0.1706 -1e-5,0.0711 -0.0277,0.11729 -0.0832,0.1386 -1.07735,0.80321 -2.024,1.75391 -2.83994,2.85208 -0.81594,1.09819 -1.49127,2.287 -2.02597,3.56644 -0.53473,1.27945 -0.93478,2.58377 -1.20015,3.91296 -0.26538,1.32919 -0.39807,2.63706 -0.39807,3.92361 0,2.98536 0.82782,5.31322 2.48346,6.98359 0.0475,0.0426 0.0713,0.0888 0.0713,0.1386 -1e-5,0.11374 -0.0594,0.17059 -0.17823,0.17061 l -0.23765,0 c -0.0476,-2e-5 -0.0872,-0.0142 -0.11884,-0.0426 l 0,0 z m 5.7393,-7.44208 c 0,-0.29142 0.0158,-0.51177 0.0475,-0.66104 l 1.11696,-6.02403 -2.02004,0 0.0951,-0.52243 c 0.71295,2e-5 1.34075,-0.21679 1.8834,-0.65039 0.54263,-0.43357 0.97436,-0.96667 1.29519,-1.59929 0.32083,-0.6326 0.55253,-1.29009 0.69513,-1.97247 l 0.62978,0 -0.7486,4.01957 3.37466,0 -0.1426,0.72501 -3.36278,0 -1.14071,6.088 c -0.0317,0.1706 -0.0634,0.4407 -0.0951,0.81032 -1e-5,0.39805 0.097,0.73746 0.29113,1.01821 0.19407,0.28077 0.50104,0.42115 0.9209,0.42115 0.49114,0 0.93079,-0.2239 1.31896,-0.6717 0.17427,-0.22035 0.29508,-0.4016 0.36242,-0.54376 0.0673,-0.14216 0.13269,-0.32697 0.19607,-0.55442 0.0634,-0.22746 0.12674,-0.41582 0.19012,-0.5651 l 0.22578,-1.26878 0.62976,0 -0.23764,1.33276 c -0.0713,0.43359 -0.23766,0.87428 -0.49908,1.32209 -0.26141,0.4478 -0.59414,0.81208 -0.99813,1.09286 -0.40402,0.28076 -0.85555,0.42114 -1.35462,0.42114 -0.82386,0 -1.47541,-0.19015 -1.95468,-0.57042 -0.47927,-0.38027 -0.7189,-0.92937 -0.7189,-1.64728 l 0,0 z m 6.88001,7.48473 c -0.11089,-2e-5 -0.16636,-0.0569 -0.16636,-0.17061 0,-0.0781 0.0159,-0.12439 0.0475,-0.1386 1.09319,-0.81032 2.05172,-1.77344 2.87558,-2.8894 0.82385,-1.11594 1.49919,-2.3012 2.02598,-3.55577 0.52679,-1.25456 0.9209,-2.5411 1.18232,-3.85964 0.26141,-1.31853 0.39212,-2.63528 0.39212,-3.95027 0,-0.84584 -0.0792,-1.68813 -0.23764,-2.52689 -0.15845,-0.83873 -0.42383,-1.64015 -0.79613,-2.40427 -0.37233,-0.7641 -0.85556,-1.44825 -1.44968,-2.05244 -0.0317,-0.0569 -0.0475,-0.10307 -0.0475,-0.1386 0,-0.11372 0.0555,-0.17058 0.16637,-0.1706 l 0.23764,0 c 0.0396,2e-5 0.0753,0.0142 0.10695,0.0426 0.77632,0.64685 1.41599,1.39673 1.91904,2.24968 0.50302,0.85298 0.86742,1.75568 1.0932,2.70814 0.22576,0.95249 0.33863,1.94406 0.33864,2.9747 -1e-5,1.75569 -0.28122,3.5078 -0.84365,5.25635 -0.56245,1.74857 -1.39621,3.3692 -2.50129,4.86188 -1.10508,1.49267 -2.43791,2.73302 -3.99849,3.72104 -0.0317,0.0284 -0.0673,0.0426 -0.10695,0.0426 l -0.23765,0 z"
       id="text2468"
       inkscape:connector-curvature="0" />
    <path
       style="fill:#000000;fill-opacity:1;fill-rule:evenodd;stroke:none"
       d="m 253.05297,667.42574 0,1.46537 c 0,0 0.004,-10e-6 569.43803,0 l 0,-1.46537 c -284.71719,0 -427.08734,0 -498.26665,0 -35.58967,0 -53.37755,0 -62.27496,0 -4.4487,0 -6.6666,0 -7.77878,0 -0.55609,0 -0.84451,0 -0.98352,0 -0.0695,0 -0.0944,0 -0.11177,0 -0.009,0 -0.0202,0 -0.0224,0 z"
       id="path2608"
       inkscape:connector-curvature="0" />
    <path
       style="font-size:28px;font-style:normal;font-weight:normal;fill:#000000;fill-opacity:1;stroke:none;font-family:Bitstream Vera Sans"
       d="m 583.46968,514.0292 0,-4.72059 -5.22176,0 0,-1.97279 5.22176,0 0,-4.68538 2.22481,0 0,4.68538 5.22176,0 0,1.97279 -5.22176,0 0,4.72059 -2.22481,0 z"
       id="text2628"
       inkscape:connector-curvature="0" />
    <path
       style="font-size:28px;font-style:normal;font-weight:normal;fill:#000000;fill-opacity:1;stroke:none;font-family:Bitstream Vera Sans"
       d="m 604.57229,562.74897 0,-4.72059 -5.22175,0 0,-1.9728 5.22175,0 0,-4.68537 2.22482,0 0,4.68537 5.22176,0 0,1.9728 -5.22176,0 0,4.72059 -2.22482,0 z"
       id="text2632"
       inkscape:connector-curvature="0" />
    <path
       style="font-size:56px;font-style:normal;font-variant:normal;font-weight:normal;font-stretch:normal;text-align:start;line-height:100%;writing-mode:lr-tb;text-anchor:start;fill:#000000;fill-opacity:1;stroke:none;font-family:Verdana;-inkscape-font-specification:Verdana"
       d="m 802.09438,516.03204 c 0.27266,0.22305 0.61744,0.33458 1.03445,0.33458 0.60142,0 1.14068,-0.20507 1.61792,-0.61521 0.47702,-0.41013 0.89611,-0.90662 1.25697,-1.48945 l 1.19082,-1.87801 -2.14108,-8.15963 c -0.0883,-0.27342 -0.28469,-0.44791 -0.58947,-0.52347 -0.30471,-0.0755 -0.70971,-0.11332 -1.21492,-0.11332 l 0.14442,-0.73395 5.02799,0 -0.12025,0.73395 c -0.40899,0 -0.75785,0.036 -1.04653,0.10793 -0.2887,0.072 -0.43304,0.23386 -0.43304,0.48569 0,0.0432 0.008,0.072 0.0241,0.0863 l 1.59975,6.15211 3.50039,-5.54769 c 0.1122,-0.21586 0.1684,-0.39214 0.1684,-0.52887 0,-0.25183 -0.094,-0.4407 -0.2826,-0.56664 -0.1885,-0.1259 -0.4231,-0.18887 -0.7037,-0.18887 l 0.1323,-0.73395 3.9575,0 -0.1444,0.73395 c -0.5053,0 -0.9684,0.10974 -1.3894,0.32918 -0.4209,0.21948 -0.7638,0.53067 -1.0284,0.93362 l -5.95426,9.41163 c -1.13066,1.75568 -2.35359,2.63353 -3.66873,2.63353 -0.5052,0 -0.95227,-0.13672 -1.34124,-0.41015 -0.38889,-0.27343 -0.58338,-0.6296 -0.58338,-1.06852 0,-0.3094 0.10821,-0.57563 0.32473,-0.79868 0.2166,-0.22307 0.4932,-0.33459 0.83003,-0.33459 0.24055,0 0.44105,0.0648 0.60148,0.19427 0.16038,0.12951 0.24056,0.30221 0.24056,0.51806 0,0.25904 -0.0963,0.48749 -0.28869,0.68537 -0.19249,0.19788 -0.43312,0.3148 -0.72173,0.35079 l 0,0 z m 18.29562,1.85642 c -1.1706,-0.9642 -2.0307,-2.14425 -2.5801,-3.54015 -0.5493,-1.39592 -0.824,-2.88897 -0.8239,-4.47917 -10e-5,-1.33115 0.1604,-2.6623 0.4811,-3.99347 0.3208,-1.33115 0.7941,-2.61733 1.4194,-3.85856 0.6255,-1.24119 1.4075,-2.39246 2.3456,-3.4538 0.9383,-1.06132 2.0048,-1.96615 3.1996,-2.71449 0.032,-0.0288 0.072,-0.0432 0.1203,-0.0432 l 0.2407,0 c 0.1203,1e-5 0.1804,0.0576 0.1804,0.17268 0,0.072 -0.028,0.11875 -0.084,0.14031 -1.0906,0.81311 -2.0489,1.77549 -2.8749,2.88717 -0.8259,1.11171 -1.5096,2.31515 -2.051,3.61032 -0.5413,1.29519 -0.9461,2.61555 -1.2148,3.96109 -0.2687,1.34555 -0.4029,2.66952 -0.4029,3.97188 0,3.02209 0.838,5.37859 2.514,7.06952 0.048,0.0432 0.072,0.0899 0.072,0.14031 0,0.11512 -0.06,0.17269 -0.1804,0.17269 l -0.2407,0 c -0.048,0 -0.088,-0.0144 -0.1203,-0.0432 l 0,0 z m 5.81,-7.53363 c 0,-0.295 0.016,-0.51807 0.048,-0.66917 l 1.1309,-6.09813 -2.045,0 0.096,-0.52887 c 0.7217,0 1.3572,-0.21945 1.9066,-0.65839 0.5493,-0.4389 0.9863,-0.97856 1.3111,-1.61897 0.3247,-0.64038 0.5594,-1.30596 0.7036,-1.99673 l 0.6375,0 -0.7578,4.06901 3.4163,0 -0.1444,0.73395 -3.4042,0 -1.1547,6.1629 c -0.032,0.17269 -0.064,0.4461 -0.096,0.82026 0,0.40295 0.098,0.74653 0.2947,1.03074 0.1963,0.28424 0.5072,0.42635 0.9321,0.42635 0.4973,0 0.9422,-0.22666 1.3352,-0.67998 0.1766,-0.22305 0.2988,-0.40654 0.3671,-0.55045 0.068,-0.14389 0.1341,-0.33098 0.1983,-0.56125 0.064,-0.23024 0.1283,-0.42092 0.1925,-0.57202 l 0.2286,-1.28439 0.6374,0 -0.2404,1.34914 c -0.072,0.43893 -0.2406,0.88504 -0.5052,1.33835 -0.2648,0.45332 -0.6015,0.82207 -1.0106,1.1063 -0.4088,0.28421 -0.866,0.42633 -1.3712,0.42633 -0.834,0 -1.4936,-0.19248 -1.9787,-0.57743 -0.4852,-0.38495 -0.7278,-0.94081 -0.7278,-1.66755 l 0,0 z m 6.9646,7.5768 c -0.1122,0 -0.1683,-0.0575 -0.1683,-0.17269 0,-0.0791 0.016,-0.12592 0.048,-0.14031 1.1068,-0.82028 2.077,-1.79527 2.9109,-2.92494 0.8341,-1.1297 1.5178,-2.32953 2.051,-3.59953 0.5334,-1.26998 0.9322,-2.57236 1.1969,-3.90711 0.2646,-1.33475 0.3969,-2.66771 0.3969,-3.99887 0,-0.85625 -0.08,-1.70891 -0.2405,-2.55798 -0.1604,-0.84906 -0.4291,-1.66034 -0.806,-2.43386 -0.3768,-0.7735 -0.866,-1.46606 -1.4674,-2.07769 -0.032,-0.0575 -0.048,-0.10435 -0.048,-0.14031 0,-0.1151 0.056,-0.17267 0.1683,-0.17268 l 0.2406,0 c 0.04,1e-5 0.076,0.0145 0.1083,0.0432 0.7859,0.6548 1.4334,1.41392 1.9426,2.27737 0.5092,0.86347 0.8782,1.77728 1.1066,2.74145 0.2286,0.9642 0.3429,1.96798 0.3429,3.0113 0,1.77728 -0.2848,3.55095 -0.854,5.32103 -0.5694,1.77008 -1.4135,3.41063 -2.5322,4.92168 -1.1185,1.51104 -2.4678,2.76663 -4.0475,3.76681 -0.032,0.0288 -0.068,0.0432 -0.1083,0.0432 l -0.2407,0 z"
       id="text2640"
       inkscape:connector-curvature="0" />
    <path
       inkscape:connector-curvature="0"
       id="path2470"
       d="m 774.3207,521.65118 0,1.48545 c 47.5594,0 71.3347,0 83.2245,0 5.9448,0 8.9261,0 10.4123,0 0.7432,0 1.1097,0 1.2953,0 0.093,0 0.1263,0 0.1496,0 0.011,0 0.022,0 0.025,0 l 0,-0.74273 0,-0.74272 c 0,0 0.012,0 -95.10654,0 z"
       style="fill:#000000;fill-opacity:1;fill-rule:evenodd;stroke:none" />
    <path
       inkscape:connector-curvature="0"
       id="path8159"
       style="font-size:12px;fill-rule:evenodd;stroke-width:0.625;stroke-linejoin:round"
       d="m 849.8336,515.83342 22.0344,6.52944 -22.0344,6.52943 c 3.5201,-3.85497 3.4998,-9.12924 0,-13.05887 z" />
    <path
       inkscape:connector-curvature="0"
       style="fill:#000000;fill-opacity:1;stroke:#000000;stroke-width:1.88121581;stroke-linecap:round;stroke-linejoin:round;stroke-miterlimit:4;stroke-opacity:1;stroke-dashoffset:0"
       d="m 398.40681,426.98582 153.02893,0 0,44.09029 -153.02893,0 0,-44.09029 z"
       id="rect2470" />
    <path
       inkscape:connector-curvature="0"
       style="fill:#ccffaa;fill-opacity:1;stroke:#000000;stroke-width:1.88121581;stroke-linecap:round;stroke-linejoin:round;stroke-miterlimit:4;stroke-opacity:1;stroke-dashoffset:0"
       d="m 393.98597,423.47864 153.02895,0 0,44.09029 -153.02895,0 0,-44.09029 z"
       id="rect2468" />
    <path
       style="font-size:56px;font-style:normal;font-variant:normal;font-weight:normal;font-stretch:normal;text-align:start;line-height:100%;writing-mode:lr-tb;text-anchor:start;fill:#000000;fill-opacity:1;stroke:none;font-family:Verdana;-inkscape-font-specification:Verdana"
       d="m 471.62556,451.64124 c -0.14832,0 -0.22249,-0.085 -0.22249,-0.25508 l 0.0989,-0.35489 c 0.033,-0.0961 0.103,-0.14418 0.21012,-0.14418 0.68392,0 1.23601,-0.0462 1.65625,-0.13863 0.42024,-0.0924 0.69217,-0.30868 0.81576,-0.64878 l 3.47319,-12.52109 c 0.0494,-0.11088 0.0742,-0.22179 0.0742,-0.33271 -1e-5,-0.24397 -0.66745,-0.36597 -2.00233,-0.36599 -0.0494,2e-5 -0.0948,-0.0277 -0.13595,-0.0832 -0.0412,-0.0555 -0.0618,-0.11274 -0.0618,-0.1719 l 0.0989,-0.35491 c 0.0165,-0.0961 0.11124,-0.14415 0.28428,-0.14416 l 6.32836,0 c 0.0577,10e-6 0.10504,0.0241 0.14214,0.0721 0.0371,0.0481 0.0556,0.10166 0.0556,0.16082 l -0.0989,0.35489 c -0.0247,0.11092 -0.0948,0.16636 -0.21012,0.16635 -0.6757,10e-6 -1.22366,0.0462 -1.64389,0.13864 -0.42025,0.0924 -0.68804,0.3087 -0.80339,0.64879 l -2.07649,7.49711 9.99928,-7.02023 c 0.0412,-0.0739 0.12152,-0.15709 0.24103,-0.24954 0.11945,-0.0924 0.21422,-0.18296 0.28428,-0.2717 0.07,-0.0887 0.10502,-0.19962 0.10506,-0.33272 -4e-5,-0.27355 -0.24311,-0.41034 -0.72925,-0.41035 -0.0577,10e-6 -0.10714,-0.0277 -0.14831,-0.0832 -0.0412,-0.0555 -0.0618,-0.11274 -0.0618,-0.17191 l 0.0989,-0.3549 c 0.0165,-0.0961 0.11122,-0.14415 0.28427,-0.14417 l 4.56088,0 c 0.0577,2e-5 0.10504,0.0241 0.14213,0.0721 0.0371,0.0481 0.0556,0.10166 0.0556,0.16082 l -0.0989,0.3549 c -0.0247,0.11091 -0.0948,0.16636 -0.21013,0.16635 -1.16186,1e-5 -2.46791,0.50647 -3.91813,1.51939 -2e-5,10e-6 -0.0124,0.003 -0.0371,0.0111 -0.0247,0.008 -0.0453,0.0185 -0.0618,0.0332 l -5.26539,3.70421 3.74511,8.01836 c 0.22245,0.33273 0.4573,0.53606 0.70452,0.60999 0.24719,0.0739 0.62623,0.1109 1.13712,0.1109 0.0659,0 0.12152,0.0277 0.16687,0.0832 0.0453,0.0555 0.068,0.10532 0.068,0.14971 l -0.0989,0.36599 c -0.0412,0.10349 -0.14422,0.15526 -0.309,0.15526 l -5.43843,0 c -0.15657,0 -0.23484,-0.085 -0.23484,-0.25508 l 0.0989,-0.35489 c 0.0494,-0.0961 0.11948,-0.14418 0.21013,-0.14418 0.96407,0 1.44611,-0.2181 1.44613,-0.65433 -2e-5,-0.0444 -0.002,-0.0814 -0.006,-0.11091 -0.004,-0.0296 -0.0103,-0.0591 -0.0185,-0.0887 l -3.13946,-6.70971 -3.83161,2.66171 -1.16185,4.20327 c -0.033,0.14787 -0.0494,0.26248 -0.0494,0.3438 0,0.23659 0.65921,0.35489 1.97762,0.35489 0.0659,0 0.11947,0.0277 0.16068,0.0832 0.0412,0.0555 0.0618,0.10533 0.0618,0.14971 l -0.0989,0.36599 c -0.0412,0.10349 -0.14422,0.15526 -0.30901,0.15526 l -6.30362,0 z m 19.5227,1.94246 c -0.0182,0 -0.0382,-0.0114 -0.06,-0.0342 -0.0218,-0.0229 -0.0327,-0.044 -0.0327,-0.0636 l 0.0491,-0.16146 c 0.0109,-0.0457 0.04,-0.0685 0.0873,-0.0685 0.2363,-1e-5 0.39988,-0.0179 0.49076,-0.0539 0.0909,-0.0359 0.16178,-0.13538 0.21267,-0.29847 l 1.25964,-4.5112 c 0,-0.01 0.0136,-0.0782 0.0409,-0.20549 0.0273,-0.12721 0.0409,-0.2218 0.0409,-0.28379 0,-0.12394 -0.0255,-0.22832 -0.0763,-0.31313 -0.0509,-0.0848 -0.13813,-0.12721 -0.26174,-0.12722 -0.12724,1e-5 -0.23902,0.0481 -0.33536,0.14434 -0.0963,0.0963 -0.1745,0.20877 -0.23448,0.33761 -0.06,0.12885 -0.11542,0.27889 -0.16631,0.45015 -0.0509,0.17124 -0.0873,0.29763 -0.10906,0.37919 -0.0182,0.0489 -0.0455,0.0734 -0.0818,0.0734 l -0.13086,0 c -0.0545,1e-5 -0.0818,-0.0342 -0.0818,-0.10274 0.0873,-0.3164 0.16631,-0.56837 0.2372,-0.75594 0.0709,-0.18756 0.18176,-0.36206 0.33263,-0.52353 0.15086,-0.16145 0.34808,-0.24219 0.59165,-0.2422 0.25447,10e-6 0.47533,0.0669 0.66254,0.20061 0.18722,0.13376 0.299,0.31314 0.33535,0.53821 0.46168,-0.49254 0.93791,-0.73881 1.42869,-0.73882 0.30899,10e-6 0.57164,0.075 0.78795,0.22508 0.2163,0.15005 0.37897,0.34331 0.48804,0.5798 0.10905,0.23649 0.16358,0.49173 0.16359,0.76574 -1e-5,0.42077 -0.11908,0.86194 -0.35718,1.3235 -0.23812,0.46156 -0.56166,0.84727 -0.97062,1.15715 -0.40898,0.30988 -0.85158,0.46481 -1.3278,0.46481 -0.21812,0 -0.41443,-0.0578 -0.58892,-0.17369 -0.17449,-0.11579 -0.30719,-0.26829 -0.39807,-0.45748 l -0.51258,1.83482 c -0.0218,0.062 -0.0327,0.11906 -0.0327,0.17123 0,0.0947 0.24174,0.1419 0.72524,0.14191 0.0254,-1e-5 0.0473,0.0114 0.0654,0.0342 0.0182,0.0229 0.0273,0.0473 0.0273,0.0734 l -0.0491,0.16147 c -0.007,0.0392 -0.0473,0.0587 -0.11997,0.0587 l -2.0994,0 z m 3.0046,-2.08435 c 0.28718,0 0.54983,-0.11662 0.78795,-0.34983 0.23811,-0.23323 0.43623,-0.52192 0.59437,-0.86604 0.15814,-0.34413 0.27809,-0.68908 0.35989,-1.03483 0.0818,-0.34577 0.1227,-0.6377 0.1227,-0.87582 0,-0.24138 -0.0536,-0.4534 -0.16087,-0.63607 -0.10724,-0.18266 -0.28446,-0.27399 -0.53167,-0.274 -0.26901,10e-6 -0.52621,0.0905 -0.77157,0.27156 -0.2454,0.18103 -0.46443,0.4004 -0.6571,0.65807 -1e-5,0.003 -1e-5,0.009 0,0.0147 -1e-5,0.006 -0.004,0.0131 -0.0109,0.0195 l -0.60527,2.18219 c 0.0436,0.24138 0.13904,0.45015 0.28628,0.6263 0.14723,0.17613 0.34262,0.2642 0.5862,0.2642 l 0,0 z m 7.67705,0.36369 c -1.18658,0 -2.11563,-0.39739 -2.7872,-1.1922 -0.67156,-0.79483 -1.00734,-1.74305 -1.00734,-2.8447 0,-1.06468 0.29045,-2.07391 0.87138,-3.02768 0.58092,-0.95378 1.37402,-1.72086 2.37931,-2.30127 1.00528,-0.58039 2.09708,-0.87058 3.27542,-0.87059 0.71687,1e-5 1.33488,0.17006 1.85401,0.51015 0.51911,0.34012 0.77866,0.81331 0.77867,1.41957 -1e-5,1.23474 -0.6798,2.02031 -2.0394,2.35672 -1.35961,0.33641 -2.99938,0.50463 -4.9193,0.50462 l -0.0494,0 c -0.24721,0.89463 -0.38317,1.67465 -0.40789,2.34007 0,0.68022 0.1751,1.27725 0.5253,1.7911 0.35021,0.51386 0.87551,0.77079 1.57592,0.77079 0.99704,0 1.95288,-0.21441 2.86753,-0.64325 0.91463,-0.42883 1.67272,-1.00922 2.27425,-1.74119 0.0165,-0.0296 0.0659,-0.0443 0.14832,-0.0443 0.0906,0 0.17303,0.037 0.2472,0.1109 0.0742,0.0739 0.11124,0.14418 0.11124,0.21072 0,0.0444 -0.008,0.0739 -0.0247,0.0887 -0.42849,0.52495 -0.93937,0.97966 -1.53265,1.36413 -0.5933,0.38447 -1.24425,0.68021 -1.95288,0.88723 -0.70866,0.20702 -1.4379,0.31052 -2.18773,0.31052 l 0,0 z m -1.49557,-5.98882 c 0.9888,1e-5 1.89519,-0.0389 2.71922,-0.11644 0.82399,-0.0776 1.57383,-0.28835 2.24952,-0.63216 0.67568,-0.3438 1.01352,-0.86689 1.01353,-1.5693 -1e-5,-0.26616 -0.0845,-0.50645 -0.25339,-0.72087 -0.16893,-0.2144 -0.38935,-0.37892 -0.66126,-0.49352 -0.27193,-0.11459 -0.56857,-0.17189 -0.88993,-0.17191 -1.06296,2e-5 -1.94671,0.36045 -2.65122,1.08131 -0.70453,0.72089 -1.21336,1.59518 -1.52647,2.62289 l 0,0 z m 14.74555,11.42313 c -1.20305,-0.99075 -2.0868,-2.2033 -2.65124,-3.63765 -0.56444,-1.43436 -0.84666,-2.96853 -0.84666,-4.60252 0,-1.36782 0.1648,-2.73564 0.4944,-4.10346 0.32961,-1.36781 0.81577,-2.68942 1.45848,-3.96482 0.64273,-1.27539 1.44613,-2.45837 2.41022,-3.54894 0.96408,-1.09054 2.06001,-2.02028 3.28779,-2.78924 0.0329,-0.0296 0.0742,-0.0444 0.12358,-0.0444 l 0.24722,0 c 0.12359,2e-5 0.18538,0.0591 0.18539,0.17745 -1e-5,0.0739 -0.0289,0.12201 -0.0865,0.14417 -1.12065,0.8355 -2.10534,1.82439 -2.95405,2.96668 -0.84873,1.14233 -1.5512,2.37892 -2.1074,3.70975 -0.5562,1.33086 -0.97232,2.68758 -1.24836,4.07018 -0.27604,1.38261 -0.41406,2.74303 -0.41406,4.08128 0,3.10531 0.86107,5.52673 2.58325,7.26422 0.0494,0.0444 0.0742,0.0924 0.0742,0.14418 -1e-5,0.1183 -0.0618,0.17744 -0.1854,0.17745 l -0.2472,0 c -0.0494,-10e-6 -0.0907,-0.0148 -0.1236,-0.0444 l 0,0 z m 4.44962,-7.47494 c 0,-0.17005 0.033,-0.38816 0.0989,-0.65433 l 1.81693,-6.56553 -2.68214,0 c -0.0494,10e-6 -0.0948,-0.0277 -0.13597,-0.0832 -0.0412,-0.0555 -0.0618,-0.11273 -0.0618,-0.17189 l 0.0989,-0.35489 c 0.0329,-0.0962 0.10299,-0.14417 0.2101,-0.14418 l 2.78102,0 1.03825,-3.7042 c 0.0659,-0.20701 0.18745,-0.37521 0.36462,-0.50461 0.17715,-0.12938 0.38521,-0.19406 0.62418,-0.19408 0.18951,2e-5 0.35432,0.0536 0.4944,0.1608 0.14008,0.10728 0.21012,0.24956 0.21012,0.42698 0,0.0962 -0.008,0.15898 -0.0247,0.18855 l -1.01352,3.62656 2.63268,0 c 0.0577,1e-5 0.10506,0.0241 0.14215,0.0721 0.0371,0.048 0.0556,0.10166 0.0556,0.16081 l -0.0989,0.36598 c -2e-5,0.1035 -0.0659,0.15528 -0.19777,0.15527 l -2.73157,0 -1.85401,6.63207 c -0.11536,0.42883 -0.17304,0.79112 -0.17304,1.08687 0,0.66542 0.25131,0.99813 0.75396,0.99813 0.51912,0 0.99498,-0.15712 1.42759,-0.47135 0.43259,-0.31422 0.80134,-0.70054 1.10623,-1.15893 0.30487,-0.45841 0.56031,-0.9279 0.76633,-1.4085 0.033,-0.0591 0.0824,-0.0887 0.14831,-0.0887 l 0.29664,0 c 0.1236,0 0.18539,0.0739 0.1854,0.22181 -0.38728,0.90941 -0.91876,1.71162 -1.59444,2.40662 -0.67569,0.695 -1.47086,1.04249 -2.3855,1.04249 -0.65097,0 -1.19688,-0.19408 -1.6377,-0.58224 -0.44085,-0.38816 -0.66127,-0.87429 -0.66127,-1.45839 l 0,0 z m 7.98459,7.51931 c -0.11536,-1e-5 -0.17303,-0.0591 -0.17303,-0.17745 0,-0.0814 0.0165,-0.1294 0.0494,-0.14418 1.13712,-0.84287 2.13415,-1.84471 2.99112,-3.0055 0.85696,-1.1608 1.55943,-2.39368 2.10739,-3.69866 0.54797,-1.30497 0.9579,-2.6432 1.22982,-4.01472 0.27193,-1.37152 0.40788,-2.74117 0.4079,-4.10901 -2e-5,-0.87982 -0.0824,-1.75597 -0.24721,-2.62842 -0.16481,-0.87244 -0.44085,-1.70606 -0.82812,-2.50089 -0.3873,-0.7948 -0.88993,-1.50643 -1.50793,-2.13491 -0.033,-0.0591 -0.0494,-0.10716 -0.0494,-0.14417 0,-0.11829 0.0577,-0.17743 0.17304,-0.17745 l 0.2472,0 c 0.0412,2e-5 0.0783,0.0148 0.11124,0.0444 0.80753,0.67284 1.47291,1.45286 1.99615,2.34008 0.52324,0.88726 0.90228,1.82623 1.13712,2.81696 0.23484,0.99076 0.35226,2.02217 0.35227,3.09423 -1e-5,1.82623 -0.29252,3.64876 -0.87756,5.46758 -0.58506,1.81884 -1.45231,3.50457 -2.6018,5.05724 -1.14949,1.55264 -2.53587,2.84283 -4.15916,3.87054 -0.033,0.0296 -0.07,0.0444 -0.11123,0.0444 l -0.24722,0 z"
       id="text3298"
       inkscape:connector-curvature="0" />
    <path
       style="fill:#000000;fill-opacity:1;fill-rule:evenodd;stroke:none"
       d="m 351.98655,444.9499 c 10e-6,38.43526 0,57.65785 0,67.26666 0,4.80442 0,7.20974 0,8.41084 0,0.60056 0,0.8937 0,1.04383 0,0.0751 0,0.12176 0,0.14052 l 0.82706,0 0.82704,0 c 0,0 1e-5,0.009 0,-76.86185 l -1.6541,0 z"
       id="path3323"
       inkscape:connector-curvature="0" />
    <path
       inkscape:connector-curvature="0"
       id="path3325"
       d="m 352.85833,521.33001 0,1.48544 c 19.50745,0 29.25589,0 34.13275,0 2.43844,0 3.65979,0 4.26939,0 0.30481,0 0.46027,0 0.53647,0 0.0381,0 0.0575,0 0.067,0 l 0,-0.74273 0,-0.74271 c 0,0 0.009,0 -39.00567,0 z"
       style="fill:#000000;fill-opacity:1;fill-rule:evenodd;stroke:none" />
    <path
       inkscape:connector-curvature="0"
       id="path8151"
       style="font-size:12px;fill-rule:evenodd;stroke-width:0.625;stroke-linejoin:round"
       d="m 374.27817,515.51773 19.77238,6.52944 -19.77238,6.52944 c 3.1588,-3.85497 3.14059,-9.12925 0,-13.05888 z" />
    <rect
       style="fill:#000000;fill-opacity:1;stroke:#000000;stroke-width:1.88121569;stroke-linecap:round;stroke-linejoin:round;stroke-miterlimit:4;stroke-opacity:1;stroke-dasharray:none;stroke-dashoffset:0"
       id="rect3329"
       width="152.16846"
       height="44.090279"
       x="398.81702"
       y="502.17407" />
    <rect
       style="fill:#afe9dd;fill-opacity:1;stroke:#000000;stroke-width:1.88121569;stroke-linecap:round;stroke-linejoin:round;stroke-miterlimit:4;stroke-opacity:1;stroke-dasharray:none;stroke-dashoffset:0"
       id="rect3331"
       width="152.16846"
       height="44.090279"
       x="394.42114"
       y="498.66687" />
    <text
       xml:space="preserve"
       style="font-size:42.13922882px;font-style:normal;font-variant:normal;font-weight:normal;font-stretch:normal;text-align:start;line-height:125%;writing-mode:lr-tb;text-anchor:start;fill:#000000;fill-opacity:1;stroke:none;font-family:Verdana;-inkscape-font-specification:Verdana"
       x="430.88449"
       y="378.24997"
       id="text3333"
       sodipodi:linespacing="125%"
       transform="scale(1.0552452,0.94764706)"><tspan
         sodipodi:role="line"
         id="tspan3335"
         x="430.88449"
         y="378.24997" /></text>
    <path
       inkscape:connector-curvature="0"
       id="text3337"
       d="m 456.98087,526.75332 c -0.1198,0 -0.1797,-0.0686 -0.1797,-0.20602 l 0.0799,-0.28665 c 0.0266,-0.0776 0.0832,-0.11645 0.16972,-0.11645 0.55239,0 0.99831,-0.0373 1.33773,-0.11196 0.33944,-0.0747 0.55906,-0.24933 0.65889,-0.52402 l 2.80526,-10.1132 c 0.0399,-0.0896 0.0599,-0.17913 0.0599,-0.26873 -1e-5,-0.19704 -0.53909,-0.29559 -1.61726,-0.29559 -0.0399,0 -0.0766,-0.0224 -0.10982,-0.0672 -0.0333,-0.0448 -0.05,-0.0911 -0.05,-0.13885 l 0.0799,-0.28663 c 0.0133,-0.0776 0.0899,-0.11644 0.22962,-0.11645 l 5.11135,0 c 0.0466,10e-6 0.0848,0.0194 0.11481,0.0583 0.0299,0.0388 0.0449,0.0821 0.0449,0.12988 l -0.0799,0.28665 c -0.02,0.0896 -0.0766,0.13438 -0.16972,0.13436 -0.54575,2e-5 -0.98833,0.0373 -1.32775,0.11198 -0.33943,0.0747 -0.55574,0.24933 -0.6489,0.52401 l -1.67718,6.05538 8.07636,-5.6702 c 0.0333,-0.0597 0.0982,-0.12689 0.19467,-0.20154 0.0965,-0.0747 0.17302,-0.14779 0.22961,-0.21947 0.0566,-0.0717 0.0848,-0.16123 0.0849,-0.26873 -2e-5,-0.22094 -0.19635,-0.33141 -0.58901,-0.33143 -0.0466,2e-5 -0.0865,-0.0224 -0.1198,-0.0671 -0.0333,-0.0448 -0.0499,-0.0911 -0.0499,-0.13885 l 0.0799,-0.28664 c 0.0134,-0.0776 0.0899,-0.11643 0.22962,-0.11645 l 3.68377,0 c 0.0465,2e-5 0.0848,0.0194 0.11481,0.0583 0.0299,0.0387 0.0449,0.0821 0.0449,0.12988 l -0.0799,0.28665 c -0.02,0.0896 -0.0766,0.13438 -0.16971,0.13437 -0.93843,10e-6 -1.99332,0.40907 -3.16465,1.2272 -2e-5,0 -0.01,0.003 -0.0299,0.009 -0.02,0.005 -0.0366,0.0149 -0.0499,0.0269 l -4.25282,2.99184 3.0249,6.47638 c 0.17968,0.26873 0.36936,0.43295 0.56904,0.49267 0.19965,0.0597 0.50579,0.0896 0.91844,0.0896 0.0532,0 0.0982,0.0223 0.13478,0.0671 0.0366,0.0448 0.0549,0.0851 0.055,0.12092 l -0.0799,0.29562 c -0.0333,0.0836 -0.11649,0.1254 -0.24958,0.1254 l -4.39258,0 c -0.12646,0 -0.18969,-0.0686 -0.18968,-0.20603 l 0.0799,-0.28664 c 0.0399,-0.0776 0.0965,-0.11645 0.16972,-0.11645 0.77867,0 1.16801,-0.17616 1.16802,-0.5285 -10e-6,-0.0358 -0.002,-0.0657 -0.005,-0.0896 -0.003,-0.0239 -0.008,-0.0478 -0.015,-0.0717 l -2.53572,-5.41938 -3.09477,2.14984 -0.93842,3.39496 c -0.0266,0.11943 -0.0399,0.21198 -0.0399,0.27767 0,0.1911 0.53242,0.28665 1.5973,0.28665 0.0532,0 0.0965,0.0224 0.12978,0.0671 0.0333,0.0448 0.0499,0.0851 0.0499,0.12093 l -0.0799,0.2956 c -0.0333,0.0836 -0.11648,0.1254 -0.24957,0.1254 l -5.0914,0 z m 16.67123,-0.57302 c 0,-0.11593 0.0206,-0.21868 0.0616,-0.30825 l 0.73113,-1.7507 c 0.0734,-0.17651 0.1145,-0.34117 0.12331,-0.49398 0,-0.16598 -0.072,-0.24897 -0.2158,-0.24897 -0.2349,0 -0.42575,0.10608 -0.57257,0.31812 -0.14681,0.21209 -0.26279,0.45909 -0.34794,0.74099 -0.0147,0.0395 -0.0353,0.0593 -0.0617,0.0593 l -0.10571,0 c -0.044,10e-6 -0.0661,-0.0276 -0.0661,-0.083 0.091,-0.31878 0.23415,-0.60332 0.42941,-0.8536 0.19526,-0.2503 0.44263,-0.37543 0.74213,-0.37544 0.20847,1e-5 0.38244,0.0626 0.52192,0.18771 0.13946,0.12514 0.2092,0.28125 0.2092,0.4683 0,0.1133 -0.0206,0.21605 -0.0616,0.30826 l -0.73112,1.74673 c -0.0852,0.20551 -0.12773,0.37016 -0.12773,0.494 0,0.16598 0.0734,0.24897 0.22022,0.24897 0.16442,0 0.30757,-0.0573 0.42942,-0.17191 0.12185,-0.11461 0.22168,-0.25029 0.2995,-0.40705 0.0778,-0.15676 0.1402,-0.31681 0.18717,-0.48016 0.0206,-0.0369 0.0426,-0.0554 0.0661,-0.0554 l 0.10571,0 c 0.0441,10e-6 0.0661,0.0264 0.0661,0.0791 -0.05,0.19233 -0.12626,0.38136 -0.22902,0.56709 -0.10277,0.18574 -0.23563,0.34251 -0.39859,0.47028 -0.16297,0.12778 -0.34868,0.19168 -0.55715,0.19168 -0.20554,0 -0.37657,-0.0626 -0.5131,-0.18773 -0.13654,-0.12514 -0.2048,-0.27992 -0.2048,-0.46434 l 0,0 z m 1.0262,-4.33129 c 0,-0.11065 0.0477,-0.20746 0.14315,-0.29046 0.0954,-0.083 0.20479,-0.12448 0.32811,-0.12449 0.091,10e-6 0.16589,0.025 0.22463,0.0751 0.0587,0.0501 0.0881,0.11726 0.0881,0.20155 0,0.10803 -0.0484,0.20419 -0.14535,0.2885 -0.0969,0.0843 -0.20405,0.12646 -0.32151,0.12646 -0.0851,0 -0.15929,-0.0257 -0.22241,-0.077 -0.0631,-0.0514 -0.0947,-0.1179 -0.0947,-0.19958 l 0,0 z"
       style="font-size:56px;font-style:normal;font-variant:normal;font-weight:normal;font-stretch:normal;text-align:start;line-height:100%;writing-mode:lr-tb;text-anchor:start;fill:#000000;fill-opacity:1;stroke:none;font-family:Verdana;-inkscape-font-specification:Verdana" />
    <path
       inkscape:connector-curvature="0"
       style="font-size:28px;font-style:normal;font-weight:normal;fill:#000000;fill-opacity:1;stroke:none;font-family:Bitstream Vera Sans"
       d="m 482.44995,528.01956 -1.77914,0 0,-16.86958 c -1e-5,-1.35999 0.36605,-2.38465 1.09816,-3.07397 0.7321,-0.68929 1.56033,-1.03395 2.48468,-1.03397 0.54804,2e-5 0.96726,0.1009 1.25767,0.30274 0.29038,0.20184 0.43557,0.43937 0.43559,0.7126 -2e-5,0.24843 -0.10432,0.45335 -0.31289,0.61479 -0.2086,0.16149 -0.46422,0.24221 -0.76687,0.2422 -0.24542,10e-6 -0.47854,-0.0466 -0.6994,-0.13972 -0.14724,-0.0622 -0.31699,-0.20648 -0.5092,-0.43316 -0.19224,-0.22665 -0.38243,-0.33998 -0.57056,-0.34 -0.13906,2e-5 -0.26586,0.0373 -0.38037,0.11178 -0.0819,0.0497 -0.13906,0.13353 -0.17178,0.25151 -0.0573,0.20494 -0.0859,0.63654 -0.0859,1.29479 l 0,18.35999 z"
       id="text3727" />
    <path
       inkscape:connector-curvature="0"
       style="font-size:28px;font-style:normal;font-weight:normal;fill:#000000;fill-opacity:1;stroke:none;font-family:Bitstream Vera Sans"
       d="m 480.67691,512.28486 1.77916,0 0,16.86957 c -1e-5,1.36 -0.36607,2.38465 -1.09818,3.07396 -0.73211,0.68931 -1.56033,1.03397 -2.48467,1.03397 -0.54806,0 -0.9673,-0.1009 -1.25768,-0.30273 -0.29039,-0.20183 -0.43558,-0.43936 -0.43558,-0.7126 0,-0.24841 0.10429,-0.45334 0.31289,-0.6148 0.20859,-0.16147 0.46011,-0.24219 0.7546,-0.24218 0.25357,-10e-6 0.49488,0.0496 0.72392,0.14903 0.14724,0.0621 0.31494,0.20493 0.50308,0.4285 0.18814,0.22355 0.37627,0.33533 0.56443,0.33533 0.13905,0 0.26583,-0.0372 0.38036,-0.11177 0.0818,-0.0435 0.13905,-0.13042 0.17177,-0.26082 0.0573,-0.19873 0.0859,-0.62722 0.0859,-1.28548 l 0,-18.35998 z"
       id="text3731" />
    <path
       inkscape:connector-curvature="0"
       id="text3469"
       d="m 490.52887,525.31377 c -0.95838,0 -1.70879,-0.32097 -2.25119,-0.96294 -0.54242,-0.64196 -0.81362,-1.40784 -0.81362,-2.29764 0,-0.85993 0.2346,-1.67507 0.7038,-2.44544 0.4692,-0.77035 1.10979,-1.38991 1.92176,-1.85871 0.81195,-0.46877 1.69379,-0.70317 2.64553,-0.70317 0.57901,0 1.07816,0.13735 1.49746,0.41205 0.41928,0.27471 0.62893,0.6569 0.62894,1.14658 -1e-5,0.99729 -0.54908,1.63179 -1.64722,1.9035 -1.09815,0.27172 -2.42257,0.40758 -3.97328,0.40758 l -0.0399,0 c -0.19967,0.72258 -0.30947,1.35259 -0.32945,1.89006 0,0.54939 0.14143,1.03162 0.42429,1.44666 0.28285,0.41504 0.70713,0.62255 1.27285,0.62255 0.80531,0 1.57733,-0.17319 2.31609,-0.51954 0.73874,-0.34636 1.35104,-0.81514 1.83689,-1.40635 0.0133,-0.0239 0.0532,-0.0358 0.11979,-0.0358 0.0732,0 0.13976,0.0299 0.19966,0.0896 0.0599,0.0598 0.0899,0.11645 0.0899,0.1702 -10e-6,0.0358 -0.006,0.0598 -0.02,0.0717 -0.3461,0.42399 -0.75872,0.79126 -1.23791,1.10178 -0.47919,0.31054 -1.00498,0.54942 -1.57734,0.71661 -0.57237,0.16722 -1.16137,0.25083 -1.767,0.25083 l 0,0 z m -1.20795,-4.83713 c 0.79864,10e-6 1.53074,-0.0314 2.19628,-0.094 0.66554,-0.0627 1.27118,-0.2329 1.81693,-0.51059 0.54575,-0.27769 0.81861,-0.70018 0.81862,-1.26751 -1e-5,-0.21498 -0.0682,-0.40906 -0.20466,-0.58225 -0.13644,-0.17317 -0.31447,-0.30604 -0.5341,-0.39861 -0.21963,-0.0926 -0.45922,-0.13884 -0.71878,-0.13885 -0.85855,10e-6 -1.57235,0.29114 -2.14139,0.87338 -0.56903,0.58225 -0.98,1.28841 -1.2329,2.11847 l 0,0 z m 11.90986,9.22638 c -0.97169,-0.80021 -1.68549,-1.77959 -2.14138,-2.9381 -0.45589,-1.15853 -0.68385,-2.39767 -0.68384,-3.71743 -10e-6,-1.10478 0.1331,-2.20955 0.39932,-3.31433 0.26621,-1.10477 0.65888,-2.17222 1.17802,-3.20236 0.51911,-1.03011 1.16802,-1.9856 1.9467,-2.86645 0.77868,-0.88082 1.66385,-1.63176 2.65552,-2.25284 0.0266,-0.0239 0.0599,-0.0358 0.0998,-0.0358 l 0.19966,0 c 0.0998,2e-5 0.14974,0.0478 0.14974,0.14333 0,0.0598 -0.0233,0.0985 -0.0699,0.11644 -0.90516,0.67484 -1.70047,1.47355 -2.38598,2.39618 -0.68551,0.92264 -1.25288,1.92142 -1.70212,2.99633 -0.44924,1.07492 -0.78534,2.17074 -1.00829,3.28746 -0.22297,1.11672 -0.33445,2.21553 -0.33444,3.29641 -1e-5,2.50813 0.69549,4.46389 2.08647,5.86725 0.04,0.0358 0.0599,0.0747 0.0599,0.11646 -10e-6,0.0955 -0.0499,0.14331 -0.14974,0.14331 l -0.19966,0 c -0.0399,0 -0.0732,-0.0119 -0.0999,-0.0358 l 0,0 z m 5.47076,-4.82817 c 0,-0.0358 0.0133,-0.10155 0.0399,-0.19707 l 2.14638,-6.38679 -1.8369,0 c -0.46588,0 -0.8702,0.11048 -1.21295,0.33142 -0.34275,0.22097 -0.64724,0.48522 -0.91346,0.79275 -0.26621,0.30756 -0.41596,0.46432 -0.44923,0.47028 l -0.24959,0 c -0.0932,10e-6 -0.13976,-0.0478 -0.13976,-0.14333 0,-0.0239 0.006,-0.0478 0.02,-0.0716 0.43925,-0.69272 0.90846,-1.27348 1.40761,-1.74226 0.49916,-0.46878 1.07152,-0.70317 1.7171,-0.70318 l 6.13963,0 c 0.15305,1e-5 0.27286,0.0387 0.35938,0.11644 0.0865,0.0777 0.12978,0.17917 0.12979,0.30457 -10e-6,0.16124 -0.0716,0.30905 -0.21464,0.44341 -0.1431,0.13437 -0.3045,0.20155 -0.48418,0.20155 l -3.65383,0 -1.40762,6.44054 c -0.0399,0.1672 -0.13644,0.31053 -0.28951,0.42996 -0.15307,0.11945 -0.32945,0.17916 -0.5291,0.17916 -0.15974,0 -0.29617,-0.0463 -0.40931,-0.13885 -0.11315,-0.0926 -0.16971,-0.20155 -0.16971,-0.32695 l 0,0 z m 6.04976,4.864 c -0.0932,-10e-6 -0.13975,-0.0478 -0.13975,-0.14333 0,-0.0656 0.0133,-0.10446 0.0399,-0.11644 0.91845,-0.68078 1.72375,-1.48996 2.41592,-2.42753 0.69216,-0.93757 1.25953,-1.93335 1.70212,-2.98736 0.44258,-1.05402 0.77369,-2.13491 0.99332,-3.24267 0.21963,-1.10776 0.32944,-2.21403 0.32945,-3.3188 -10e-6,-0.71065 -0.0666,-1.41829 -0.19966,-2.12298 -0.13312,-0.70465 -0.35608,-1.37797 -0.66887,-2.01994 -0.31281,-0.64196 -0.71879,-1.21674 -1.21795,-1.72435 -0.0266,-0.0478 -0.0399,-0.0865 -0.0399,-0.11644 0,-0.0955 0.0466,-0.14332 0.13975,-0.14333 l 0.19967,0 c 0.0333,1e-5 0.0632,0.0119 0.0899,0.0358 0.65224,0.54344 1.18965,1.17346 1.61228,1.89005 0.42261,0.71664 0.72876,1.47505 0.91845,2.27525 0.18966,0.80023 0.28451,1.63328 0.28451,2.49919 0,1.47503 -0.23627,2.94706 -0.70881,4.41612 -0.47253,1.46905 -1.17301,2.83062 -2.10144,4.08468 -0.92843,1.25407 -2.0482,2.29613 -3.35932,3.12621 -0.0266,0.0239 -0.0566,0.0358 -0.0899,0.0358 l -0.19967,0 z m 10.7718,-4.42508 c -0.56571,0 -1.04656,-0.13735 -1.44256,-0.41205 -0.396,-0.2747 -0.69384,-0.63001 -0.89349,-1.06596 -0.19966,-0.43593 -0.2995,-0.90173 -0.29949,-1.3974 -10e-6,-0.57327 0.12645,-1.17642 0.37935,-1.80944 0.25291,-0.63299 0.60065,-1.21971 1.04324,-1.76017 0.44258,-0.54045 0.96338,-0.97936 1.56236,-1.31678 0.59898,-0.33739 1.22458,-0.5061 1.87683,-0.5061 0.39266,0 0.74873,0.10598 1.06819,0.318 0.31945,0.21199 0.56239,0.49118 0.72877,0.83753 l 1.16803,-4.1653 c 0.0666,-0.26872 0.0998,-0.43295 0.0999,-0.49267 -10e-6,-0.22094 -0.43595,-0.33143 -1.3078,-0.33143 -0.0399,0 -0.0766,-0.0224 -0.10982,-0.0671 -0.0333,-0.0448 -0.0499,-0.0911 -0.0499,-0.13885 l 0.0799,-0.28663 c 0.0266,-0.0776 0.0832,-0.11645 0.16972,-0.11646 l 2.67547,-0.19707 c 0.1331,10e-6 0.19965,0.0598 0.19966,0.17916 l -2.94502,10.58793 c -10e-6,0.0776 -0.0233,0.22692 -0.0699,0.44788 -0.0466,0.22096 -0.0699,0.37026 -0.0699,0.44788 0,0.53746 0.2063,0.80619 0.61895,0.80619 0.29949,0 0.55239,-0.13884 0.75871,-0.41653 0.20632,-0.27768 0.35938,-0.56284 0.45923,-0.85546 0.0998,-0.29261 0.20963,-0.66883 0.32945,-1.12865 0.0333,-0.0836 0.0832,-0.1254 0.14974,-0.12542 l 0.2396,0 c 0.0399,2e-5 0.0732,0.0179 0.0998,0.0538 0.0266,0.0358 0.0399,0.0776 0.0399,0.12541 -0.21963,0.83008 -0.47255,1.50189 -0.75872,2.01547 -0.28619,0.51357 -0.74208,0.77035 -1.36768,0.77035 -0.45924,0 -0.86022,-0.12241 -1.20297,-0.36727 -0.34275,-0.24483 -0.54741,-0.57327 -0.61395,-0.98534 -0.35941,0.38818 -0.76539,0.71065 -1.21795,0.96744 -0.45257,0.25679 -0.91845,0.38517 -1.39763,0.38517 l 0,0 z m 0.0399,-0.43892 c 0.33276,0 0.66387,-0.0851 0.99331,-0.25529 0.32944,-0.1702 0.6306,-0.38667 0.90348,-0.64943 0.27286,-0.26275 0.5058,-0.5285 0.69881,-0.79723 0.0133,0 0.02,-0.0179 0.02,-0.0537 l 1.12808,-4.00408 c -0.0865,-0.44787 -0.26122,-0.83155 -0.5241,-1.15106 -0.2629,-0.31948 -0.62063,-0.47922 -1.0732,-0.47923 -0.68551,10e-6 -1.28782,0.34339 -1.80694,1.03014 -0.51912,0.68675 -0.92011,1.48995 -1.20296,2.4096 -0.28287,0.91965 -0.42429,1.68105 -0.42428,2.2842 -1e-5,0.424 0.10482,0.80768 0.31446,1.15106 0.20964,0.34337 0.5341,0.51506 0.97336,0.51506 l 0,0 z m 10.01307,0 c -10e-6,-0.0358 0.0133,-0.10155 0.0399,-0.19707 l 2.14638,-6.38679 -1.8369,0 c -0.46588,0 -0.8702,0.11048 -1.21294,0.33142 -0.34275,0.22097 -0.64724,0.48522 -0.91347,0.79275 -0.26621,0.30756 -0.41595,0.46432 -0.44923,0.47028 l -0.24958,0 c -0.0932,10e-6 -0.13977,-0.0478 -0.13977,-0.14333 0,-0.0239 0.006,-0.0478 0.02,-0.0716 0.43925,-0.69272 0.90847,-1.27348 1.40762,-1.74226 0.49915,-0.46878 1.07152,-0.70317 1.71709,-0.70318 l 6.13963,0 c 0.15306,1e-5 0.27286,0.0387 0.35939,0.11644 0.0865,0.0777 0.12977,0.17917 0.12978,0.30457 -10e-6,0.16124 -0.0716,0.30905 -0.21464,0.44341 -0.1431,0.13437 -0.30449,0.20155 -0.48418,0.20155 l -3.65382,0 -1.40762,6.44054 c -0.04,0.1672 -0.13644,0.31053 -0.28951,0.42996 -0.15308,0.11945 -0.32945,0.17916 -0.52911,0.17916 -0.15973,0 -0.29617,-0.0463 -0.4093,-0.13885 -0.11315,-0.0926 -0.16972,-0.20155 -0.16972,-0.32695 l 0,0 z"
       style="font-size:56px;font-style:normal;font-variant:normal;font-weight:normal;font-stretch:normal;text-align:start;line-height:100%;writing-mode:lr-tb;text-anchor:start;fill:#000000;fill-opacity:1;stroke:none;font-family:Verdana;-inkscape-font-specification:Verdana" />
    <path
       style="fill:#000000;fill-opacity:1;fill-rule:evenodd;stroke:none"
       d="m 351.9642,522.31359 c -1e-5,38.43529 0,57.65786 0,67.26668 0,4.80441 0,7.20974 0,8.41084 0,0.60055 0,0.89369 0,1.04384 0,0.0751 0,0.10165 0,0.12043 0,0.01 0,0.0177 0,0.0201 l 0.82705,0 0.82706,0 c 0,0 -1e-5,0.009 0,-76.86187 l -1.65411,0 z"
       id="path3482"
       inkscape:connector-curvature="0" />
    <path
       inkscape:connector-curvature="0"
       id="path3484"
       d="m 352.18774,598.03128 0,1.46537 c 19.50745,10e-6 29.2559,0 34.13276,0 2.43843,0 3.65978,0 4.26938,0 0.30481,0 0.46028,0 0.53647,0 0.0381,0 0.0575,0 0.067,0 l 0,-0.72264 0,-0.74273 c 0,0 0.009,10e-6 -39.00567,0 z"
       style="fill:#000000;fill-opacity:1;fill-rule:evenodd;stroke:none" />
    <path
       inkscape:connector-curvature="0"
       id="path8143"
       style="font-size:12px;fill-rule:evenodd;stroke-width:0.625;stroke-linejoin:round"
       d="m 373.60635,592.21165 19.77237,6.52944 -19.77237,6.52944 c 3.1588,-3.85498 3.14059,-9.12926 0,-13.05888 z" />
    <rect
       style="fill:#000000;fill-opacity:1;stroke:#000000;stroke-width:1.88121569;stroke-linecap:round;stroke-linejoin:round;stroke-miterlimit:4;stroke-opacity:1;stroke-dasharray:none;stroke-dashoffset:0"
       id="rect3494"
       width="153.15997"
       height="44.090279"
       x="397.73566"
       y="578.33002" />
    <rect
       style="fill:#ff7f2a;fill-opacity:1;stroke:#000000;stroke-width:1.88121569;stroke-linecap:round;stroke-linejoin:round;stroke-miterlimit:4;stroke-opacity:1;stroke-dasharray:none;stroke-dashoffset:0"
       id="rect3496"
       width="153.15997"
       height="44.090279"
       x="393.3111"
       y="574.82281" />
    <path
       style="font-size:56px;font-style:normal;font-variant:normal;font-weight:normal;font-stretch:normal;text-align:start;line-height:125%;writing-mode:lr-tb;text-anchor:start;fill:#000000;fill-opacity:1;stroke:none;font-family:Verdana;-inkscape-font-specification:Verdana"
       d="m 421.55226,439.59081 c -2e-5,0.90421 -0.1756,1.7422 -0.52676,2.51394 -0.35119,0.77177 -0.84232,1.44078 -1.47339,2.00704 -0.78379,0.70327 -1.71007,1.23072 -2.77884,1.58235 -1.06879,0.35163 -2.41749,0.52744 -4.0461,0.52744 l -3.02312,0 0,7.60346 -3.02313,0 0,-20.3992 6.1684,0 c 1.36395,2e-5 2.51927,0.10274 3.46592,0.30825 0.94661,0.20552 1.78636,0.52746 2.51926,0.96585 0.86518,0.52061 1.53444,1.16907 2.00778,1.94538 0.47329,0.77635 0.70996,1.75817 0.70998,2.94549 l 0,0 z m -3.14528,0.0685 c -10e-6,-0.70325 -0.13743,-1.31518 -0.41224,-1.83579 -0.27485,-0.52058 -0.69219,-0.94527 -1.252,-1.27409 -0.4886,-0.28311 -1.04589,-0.48633 -1.67188,-0.60966 -0.62601,-0.12327 -1.41741,-0.18492 -2.37422,-0.18494 l -2.99259,0 0,8.15145 2.5498,0 c 1.22145,1e-5 2.2139,-0.0982 2.97732,-0.29454 0.7634,-0.19636 1.38433,-0.50917 1.86275,-0.93845 0.47839,-0.43839 0.81683,-0.89962 1.01533,-1.38369 0.19848,-0.48404 0.29772,-1.02748 0.29773,-1.63029 l 0,0 z"
       id="text3520"
       inkscape:connector-curvature="0" />
    <path
       style="font-size:56px;font-style:normal;font-variant:normal;font-weight:normal;font-stretch:normal;text-align:start;line-height:125%;writing-mode:lr-tb;text-anchor:start;fill:#000000;fill-opacity:1;stroke:none;font-family:Verdana;-inkscape-font-specification:Verdana"
       d="m 417.05029,530.16004 -8.97777,0 0,-2.08239 2.97733,0 0,-16.23441 -2.97733,0 0,-2.08239 8.97777,0 0,2.08239 -2.97732,0 0,16.23441 2.97732,0 0,2.08239 z"
       id="text3543"
       inkscape:connector-curvature="0" />
    <path
       inkscape:connector-curvature="0"
       id="text3510"
       d="m 468.30487,605.22581 c -0.15776,0 -0.23665,-0.0904 -0.23664,-0.27131 l 0.10517,-0.37749 c 0.035,-0.1022 0.10956,-0.15335 0.2235,-0.15335 0.72746,0 1.31469,-0.0491 1.76167,-0.14746 0.447,-0.0983 0.73624,-0.32834 0.8677,-0.69009 l 3.69428,-13.31816 c 0.0526,-0.11794 0.0789,-0.23591 0.0789,-0.35389 -10e-6,-0.2595 -0.70994,-0.38926 -2.1298,-0.38928 -0.0526,2e-5 -0.1008,-0.0295 -0.14461,-0.0885 -0.0438,-0.0589 -0.0657,-0.11991 -0.0657,-0.18285 l 0.10517,-0.37749 c 0.0175,-0.1022 0.11832,-0.15333 0.30239,-0.15334 l 6.7312,0 c 0.0613,10e-6 0.11174,0.0256 0.15119,0.0766 0.0394,0.0512 0.0592,0.10816 0.0592,0.17106 l -0.10517,0.37748 c -0.0263,0.11798 -0.10081,0.17697 -0.2235,0.17694 -0.71872,3e-5 -1.30155,0.0491 -1.74854,0.14746 -0.44701,0.0983 -0.73185,0.32835 -0.85455,0.6901 l -2.20867,7.97438 10.63582,-7.46714 c 0.0438,-0.0787 0.12927,-0.1671 0.25636,-0.26543 0.12707,-0.0983 0.22787,-0.19462 0.30238,-0.289 0.0745,-0.0943 0.11174,-0.21232 0.11175,-0.3539 -1e-5,-0.29096 -0.25856,-0.43644 -0.77567,-0.43647 -0.0614,3e-5 -0.11395,-0.0295 -0.15775,-0.0885 -0.0438,-0.0589 -0.0658,-0.11991 -0.0658,-0.18285 l 0.10516,-0.37748 c 0.0175,-0.1022 0.11831,-0.15333 0.30239,-0.15335 l 4.8512,0 c 0.0613,2e-5 0.11172,0.0256 0.15119,0.0766 0.0395,0.0512 0.0592,0.10815 0.0592,0.17106 l -0.10516,0.37748 c -0.0263,0.11797 -0.10082,0.17696 -0.2235,0.17694 -1.23583,2e-5 -2.62502,0.53872 -4.16757,1.61611 -10e-6,1e-5 -0.0132,0.003 -0.0395,0.0118 -0.0263,0.008 -0.0482,0.0196 -0.0658,0.0354 l -5.60057,3.94002 3.9835,8.5288 c 0.23663,0.35389 0.48642,0.57016 0.74938,0.64881 0.26292,0.0787 0.66609,0.11795 1.2095,0.11795 0.0701,0 0.12927,0.0296 0.17749,0.0885 0.0482,0.059 0.0723,0.11207 0.0724,0.15925 l -0.10518,0.38929 c -0.0438,0.1101 -0.15339,0.16515 -0.32867,0.16515 l -5.78463,0 c -0.16654,0 -0.2498,-0.0904 -0.24979,-0.27132 l 0.10518,-0.37749 c 0.0526,-0.1022 0.12706,-0.15335 0.22349,-0.15335 1.02545,0 1.53817,-0.232 1.53818,-0.69599 -10e-6,-0.0472 -0.002,-0.0865 -0.006,-0.11797 -0.004,-0.0314 -0.011,-0.0629 -0.0197,-0.0943 l -3.33931,-7.13684 -4.07554,2.83114 -1.23579,4.47085 c -0.035,0.15729 -0.0526,0.27918 -0.0526,0.36569 0,0.25166 0.70116,0.37748 2.1035,0.37748 0.0701,0 0.12708,0.0296 0.17091,0.0885 0.0438,0.059 0.0658,0.11208 0.0658,0.15926 l -0.10518,0.38928 c -0.0438,0.1101 -0.15338,0.16515 -0.32866,0.16515 l -6.70492,0 z m 22.82769,0.0927 c -0.29269,0 -0.54145,-0.071 -0.74633,-0.21317 -0.20487,-0.14213 -0.35895,-0.32595 -0.46224,-0.55149 -0.10331,-0.22554 -0.15496,-0.46652 -0.15496,-0.72295 0,-0.2966 0.0654,-0.60864 0.19627,-0.93614 0.13085,-0.32748 0.31075,-0.63102 0.53973,-0.91064 0.22897,-0.27959 0.49841,-0.50667 0.80829,-0.68123 0.30989,-0.17456 0.63356,-0.26185 0.97099,-0.26185 0.20316,0 0.38737,0.0548 0.55264,0.16453 0.16528,0.10967 0.29095,0.25411 0.37704,0.4333 l 0.60428,-2.15495 c 0.0345,-0.13903 0.0516,-0.22399 0.0517,-0.25488 -1e-5,-0.11431 -0.22554,-0.17146 -0.6766,-0.17149 -0.0207,3e-5 -0.0396,-0.0115 -0.0568,-0.0347 -0.0172,-0.0232 -0.0258,-0.0472 -0.0258,-0.0719 l 0.0413,-0.1483 c 0.0137,-0.0402 0.043,-0.0602 0.0878,-0.0602 l 1.38419,-0.10198 c 0.0689,0 0.1033,0.0309 0.1033,0.0927 l -1.52363,5.47775 c 0,0.0402 -0.0121,0.1174 -0.0361,0.23172 -0.0241,0.11431 -0.0361,0.19155 -0.0361,0.23172 -10e-6,0.27805 0.10673,0.41708 0.32022,0.41708 0.15493,0 0.28578,-0.0719 0.39253,-0.21549 0.10674,-0.14367 0.18593,-0.2912 0.23758,-0.44258 0.0516,-0.15139 0.10846,-0.34602 0.17044,-0.58392 0.0172,-0.0433 0.043,-0.0649 0.0775,-0.0649 l 0.12396,0 c 0.0206,0 0.0379,0.01 0.0516,0.0278 0.0137,0.0186 0.0207,0.0401 0.0207,0.0649 -0.11364,0.42944 -0.24449,0.77702 -0.39254,1.04271 -0.14806,0.26571 -0.38392,0.39856 -0.70759,0.39856 -0.23757,0 -0.44503,-0.0634 -0.62235,-0.19 -0.17733,-0.12668 -0.28321,-0.2966 -0.31764,-0.50978 -0.18594,0.20083 -0.39598,0.36765 -0.63011,0.50051 -0.23415,0.13284 -0.47517,0.19927 -0.72309,0.19927 l 0,0 z m 0.0206,-0.22707 c 0.17216,0 0.34346,-0.044 0.51391,-0.13209 0.17044,-0.0881 0.32624,-0.20004 0.46742,-0.33599 0.14117,-0.13593 0.26168,-0.27342 0.36154,-0.41244 0.007,0 0.0103,-0.01 0.0103,-0.0278 l 0.58363,-2.07153 c -0.0448,-0.23172 -0.13516,-0.43022 -0.27116,-0.59551 -0.13601,-0.16529 -0.32108,-0.24794 -0.55522,-0.24794 -0.35465,0 -0.66627,0.17765 -0.93484,0.53295 -0.26856,0.35529 -0.47602,0.77084 -0.62235,1.24662 -0.14635,0.4758 -0.21952,0.86971 -0.21952,1.18175 0,0.21936 0.0542,0.41786 0.1627,0.59551 0.10846,0.17764 0.27631,0.26647 0.50357,0.26647 l 0,0 z"
       style="font-size:56px;font-style:normal;font-variant:normal;font-weight:normal;font-stretch:normal;text-align:start;line-height:100%;writing-mode:lr-tb;text-anchor:start;fill:#000000;fill-opacity:1;stroke:none;font-family:Verdana;-inkscape-font-specification:Verdana" />
    <path
       style="font-size:56px;font-style:normal;font-variant:normal;font-weight:normal;font-stretch:normal;text-align:start;line-height:100%;writing-mode:lr-tb;text-anchor:start;fill:#000000;fill-opacity:1;stroke:none;font-family:Verdana;-inkscape-font-specification:Verdana"
       d="m 503.90967,593.22851 c -0.48269,0 -0.89299,-0.1172 -1.23087,-0.35158 -0.33789,-0.23439 -0.59201,-0.53757 -0.76236,-0.90954 -0.17038,-0.37197 -0.25555,-0.7694 -0.25555,-1.19232 0,-0.48915 0.10789,-1.00379 0.32369,-1.5439 0.21579,-0.54012 0.5125,-1.04074 0.89014,-1.50189 0.37764,-0.46112 0.82199,-0.83563 1.33309,-1.12353 0.51107,-0.28789 1.04488,-0.43183 1.60139,-0.43184 0.33504,10e-6 0.63886,0.0904 0.91144,0.27134 0.27258,0.18089 0.47985,0.4191 0.62183,0.71462 l 0.99662,-3.55405 c 0.0568,-0.22928 0.0852,-0.3694 0.0852,-0.42037 -10e-6,-0.18852 -0.37196,-0.28278 -1.11588,-0.28279 -0.0341,10e-6 -0.0653,-0.0191 -0.0937,-0.0573 -0.0284,-0.0382 -0.0426,-0.0777 -0.0426,-0.11847 l 0.0681,-0.24458 c 0.0227,-0.0663 0.071,-0.0994 0.14481,-0.0994 l 2.28286,-0.16815 c 0.11356,1e-5 0.17035,0.0509 0.17036,0.15287 l -2.51284,9.03416 c -10e-6,0.0663 -0.0199,0.19362 -0.0596,0.38215 -0.0398,0.18853 -0.0596,0.31592 -0.0596,0.38216 -1e-5,0.45859 0.17604,0.68788 0.52812,0.68788 0.25553,0 0.47133,-0.11847 0.64737,-0.35541 0.17603,-0.23693 0.30665,-0.48023 0.39184,-0.72991 0.0852,-0.24967 0.17887,-0.57069 0.28109,-0.96304 0.0283,-0.0713 0.071,-0.10705 0.12779,-0.10705 l 0.20443,0 c 0.0341,0 0.0625,0.0152 0.0852,0.0459 0.0227,0.0305 0.0341,0.0663 0.0341,0.10706 -0.1874,0.70826 -0.40319,1.28149 -0.64737,1.7197 -0.24419,0.4382 -0.63318,0.6573 -1.16698,0.6573 -0.39184,0 -0.73398,-0.10446 -1.02643,-0.31336 -0.29246,-0.20892 -0.46708,-0.48916 -0.52387,-0.84074 -0.30665,0.3312 -0.65305,0.60635 -1.0392,0.82545 -0.38616,0.2191 -0.78367,0.32865 -1.19254,0.32865 l 0,0 z m 0.0341,-0.37451 c 0.28394,0 0.56646,-0.0726 0.84756,-0.21783 0.28109,-0.14522 0.53805,-0.32993 0.77089,-0.55413 0.23282,-0.22419 0.43157,-0.45094 0.59626,-0.68023 0.0114,0 0.0171,-0.0152 0.0171,-0.0459 l 0.96255,-3.41647 c -0.0739,-0.38215 -0.22291,-0.70954 -0.44721,-0.98214 -0.22431,-0.2726 -0.52955,-0.4089 -0.9157,-0.4089 -0.58491,0 -1.09884,0.29297 -1.54178,0.87895 -0.44294,0.58598 -0.78508,1.27131 -1.02642,2.056 -0.24135,0.7847 -0.36203,1.43436 -0.36202,1.94899 -1e-5,0.36178 0.0894,0.68916 0.26831,0.98215 0.17888,0.29298 0.45572,0.43947 0.83052,0.43947 l 0,0 z m 9.29326,0.37451 c -0.81774,0 -1.45801,-0.27388 -1.92083,-0.82163 -0.46282,-0.54777 -0.69423,-1.20125 -0.69423,-1.96046 0,-0.73374 0.20018,-1.42927 0.60053,-2.08658 0.40035,-0.6573 0.94693,-1.18595 1.63973,-1.58594 0.69281,-0.39999 1.44524,-0.59998 2.25731,-0.59999 0.49404,10e-6 0.91994,0.11721 1.2777,0.35158 0.35777,0.2344 0.53665,0.5605 0.53666,0.97832 -10e-6,0.85094 -0.4685,1.39233 -1.4055,1.62416 -0.93699,0.23186 -2.06706,0.34777 -3.3902,0.34777 l -0.0341,0 c -0.17035,0.61655 -0.26405,1.15412 -0.28109,1.61269 0,0.46878 0.12067,0.88024 0.36202,1.23438 0.24134,0.35412 0.60336,0.53119 1.08606,0.53119 0.68712,0 1.34586,-0.14777 1.9762,-0.4433 0.63034,-0.29554 1.15277,-0.69553 1.56734,-1.19997 0.0114,-0.0204 0.0454,-0.0307 0.10221,-0.0307 0.0625,0 0.11925,0.0256 0.17036,0.0764 0.0512,0.0509 0.0766,0.0994 0.0766,0.14523 0,0.0305 -0.006,0.0509 -0.0171,0.0612 -0.29529,0.36178 -0.64738,0.67514 -1.05624,0.9401 -0.40887,0.26496 -0.85749,0.46878 -1.34586,0.61146 -0.48838,0.14267 -0.99095,0.214 -1.50772,0.214 l 0,0 z m -1.03069,-4.12728 c 0.68145,0 1.3061,-0.0268 1.87399,-0.0803 0.56787,-0.0534 1.08462,-0.19872 1.55029,-0.43566 0.46565,-0.23693 0.69848,-0.59742 0.69849,-1.0815 -10e-6,-0.18343 -0.0582,-0.34902 -0.17462,-0.4968 -0.11643,-0.14776 -0.26833,-0.26114 -0.45572,-0.34012 -0.1874,-0.079 -0.39184,-0.11845 -0.61331,-0.11846 -0.73256,10e-6 -1.34161,0.2484 -1.82713,0.74519 -0.48554,0.49682 -0.8362,1.09935 -1.05199,1.80761 l 0,0 z m 10.16211,7.8724 c -0.8291,-0.68277 -1.43815,-1.51843 -1.82714,-2.50693 -0.389,-0.98852 -0.5835,-2.04581 -0.58349,-3.1719 -10e-6,-0.94264 0.11358,-1.8853 0.34073,-2.82795 0.22714,-0.94265 0.56219,-1.85346 1.00513,-2.73242 0.44294,-0.87894 0.99662,-1.69421 1.66104,-2.44579 0.66441,-0.75157 1.41967,-1.39231 2.26581,-1.92225 0.0227,-0.0204 0.0511,-0.0305 0.0852,-0.0305 l 0.17036,0 c 0.0852,1e-5 0.12777,0.0408 0.12778,0.12229 -10e-6,0.0509 -0.0199,0.0841 -0.0596,0.0994 -0.77231,0.57579 -1.45092,1.25729 -2.03583,2.04453 -0.58492,0.78725 -1.06903,1.63945 -1.45234,2.55662 -0.38332,0.91718 -0.67009,1.85219 -0.86033,2.80503 -0.19024,0.95284 -0.28536,1.89039 -0.28536,2.81266 0,2.14008 0.59344,3.80882 1.78029,5.00625 0.0341,0.0306 0.0512,0.0637 0.0512,0.0994 -10e-6,0.0815 -0.0426,0.1223 -0.12778,0.1223 l -0.17036,0 c -0.0341,0 -0.0625,-0.01 -0.0852,-0.0305 l 0,0 z m 3.06651,-5.15145 c 0,-0.1172 0.0227,-0.26751 0.0681,-0.45095 l 1.25217,-4.52472 -1.84844,0 c -0.0341,0 -0.0653,-0.0191 -0.0937,-0.0573 -0.0284,-0.0382 -0.0426,-0.0777 -0.0426,-0.11846 l 0.0681,-0.24458 c 0.0227,-0.0663 0.071,-0.0994 0.14481,-0.0994 l 1.91657,0 0.71552,-2.5528 c 0.0454,-0.14267 0.12919,-0.25859 0.25129,-0.34777 0.12209,-0.0891 0.26547,-0.13374 0.43016,-0.13375 0.13061,10e-6 0.24418,0.0369 0.34072,0.11082 0.0966,0.0739 0.14481,0.17199 0.14481,0.29427 0,0.0663 -0.006,0.10956 -0.0171,0.12992 l -0.69849,2.49931 1.81437,0 c 0.0398,0 0.0724,0.0166 0.098,0.0498 0.0256,0.0331 0.0384,0.0701 0.0384,0.11082 l -0.0681,0.25223 c -1e-5,0.0713 -0.0454,0.10706 -0.13629,0.10706 l -1.8825,0 -1.27772,4.57059 c -0.0795,0.29553 -0.11926,0.5452 -0.11925,0.74902 -10e-6,0.45859 0.1732,0.68788 0.5196,0.68788 0.35775,0 0.68571,-0.10828 0.98385,-0.32483 0.29813,-0.21656 0.55225,-0.4828 0.76237,-0.79871 0.2101,-0.31591 0.38615,-0.63947 0.52812,-0.97068 0.0227,-0.0408 0.0568,-0.0611 0.10221,-0.0611 l 0.20444,0 c 0.0852,0 0.12777,0.0509 0.12777,0.15286 -0.2669,0.62674 -0.63318,1.17958 -1.09884,1.65856 -0.46566,0.47896 -1.01365,0.71844 -1.644,0.71844 -0.44861,0 -0.82483,-0.13375 -1.12864,-0.40126 -0.30382,-0.26751 -0.45572,-0.60253 -0.45572,-1.00505 l 0,0 z m 5.5027,5.18203 c -0.0795,0 -0.11925,-0.0408 -0.11925,-0.1223 0,-0.056 0.0114,-0.0891 0.0341,-0.0994 0.78367,-0.58088 1.4708,-1.27131 2.06139,-2.07129 0.59059,-0.79998 1.0747,-1.64963 1.45234,-2.54897 0.37763,-0.89934 0.66015,-1.82162 0.84755,-2.76682 0.18739,-0.9452 0.28109,-1.88912 0.2811,-2.83177 -1e-5,-0.60635 -0.0568,-1.21016 -0.17036,-1.81142 -0.11358,-0.60126 -0.30382,-1.17575 -0.57072,-1.72352 -0.2669,-0.54774 -0.61331,-1.03818 -1.03921,-1.4713 -0.0227,-0.0407 -0.0341,-0.0739 -0.0341,-0.0994 0,-0.0815 0.0398,-0.12229 0.11925,-0.1223 l 0.17036,0 c 0.0284,10e-6 0.0539,0.01 0.0766,0.0307 0.5565,0.4637 1.01506,1.00126 1.37568,1.61269 0.36058,0.61147 0.6218,1.25858 0.78365,1.94136 0.16185,0.68279 0.24277,1.39361 0.24277,2.13243 0,1.25857 -0.20159,2.51459 -0.60479,3.76806 -0.40319,1.25347 -1.00087,2.41522 -1.79305,3.48526 -0.79219,1.07003 -1.74764,1.95919 -2.86635,2.66744 -0.0227,0.0204 -0.0483,0.0307 -0.0766,0.0307 l -0.17037,0 z"
       id="text3551"
       inkscape:connector-curvature="0" />
    <path
       style="fill:none;stroke:#000000;stroke-width:1.05348039;stroke-linecap:butt;stroke-linejoin:miter;stroke-miterlimit:4;stroke-opacity:1;stroke-dasharray:none"
       d="m 500.25473,598.38652 36.68519,0"
       id="path3555"
       inkscape:connector-curvature="0" />
    <path
       style="font-size:56px;font-style:normal;font-variant:normal;font-weight:normal;font-stretch:normal;text-align:start;line-height:100%;writing-mode:lr-tb;text-anchor:start;fill:#000000;fill-opacity:1;stroke:none;font-family:Verdana;-inkscape-font-specification:Verdana"
       d="m 513.17494,611.99947 c -0.4827,0 -0.89299,-0.1172 -1.23086,-0.35159 -0.33789,-0.23439 -0.59201,-0.53758 -0.76237,-0.90953 -0.17036,-0.37196 -0.25555,-0.7694 -0.25555,-1.19234 0,-0.48915 0.10789,-1.00378 0.32369,-1.5439 0.21579,-0.54011 0.51251,-1.04073 0.89015,-1.50187 0.37763,-0.46113 0.82198,-0.83565 1.33308,-1.12354 0.51109,-0.28789 1.04488,-0.43183 1.6014,-0.43184 0.33505,1e-5 0.63885,0.0904 0.91145,0.27134 0.27256,0.18088 0.47984,0.4191 0.62181,0.71463 l 0.99663,-3.55406 c 0.0568,-0.22928 0.0852,-0.3694 0.0852,-0.42036 0,-0.18852 -0.37196,-0.28279 -1.11587,-0.2828 -0.0341,10e-6 -0.0653,-0.0191 -0.0937,-0.0573 -0.0284,-0.0382 -0.0427,-0.0777 -0.0426,-0.11846 l 0.0681,-0.24457 c 0.0227,-0.0663 0.071,-0.0994 0.14482,-0.0994 l 2.28285,-0.16816 c 0.11356,3e-5 0.17034,0.0509 0.17036,0.15287 l -2.51285,9.03417 c 0,0.0663 -0.0199,0.19363 -0.0596,0.38215 -0.0398,0.18853 -0.0596,0.31592 -0.0596,0.38216 -1e-5,0.45858 0.17603,0.68788 0.52812,0.68788 0.25553,0 0.47133,-0.11847 0.64737,-0.3554 0.17603,-0.23694 0.30665,-0.48025 0.39183,-0.72992 0.0852,-0.24967 0.17887,-0.57069 0.2811,-0.96303 0.0283,-0.0713 0.071,-0.10706 0.12777,-0.10706 l 0.20444,0 c 0.0341,10e-6 0.0625,0.0152 0.0852,0.0459 0.0227,0.0307 0.0341,0.0663 0.0341,0.10705 -0.18741,0.70826 -0.4032,1.28149 -0.64739,1.71971 -0.24418,0.4382 -0.63317,0.6573 -1.16697,0.6573 -0.39184,0 -0.73399,-0.10447 -1.02644,-0.31337 -0.29246,-0.20892 -0.46707,-0.48916 -0.52385,-0.84075 -0.30666,0.33122 -0.65307,0.60635 -1.03922,0.82546 -0.38616,0.21911 -0.78366,0.32866 -1.19253,0.32866 l 0,0 z m 0.0341,-0.37452 c 0.28393,0 0.56645,-0.0726 0.84756,-0.21783 0.28108,-0.14522 0.53804,-0.32993 0.77088,-0.55413 0.23282,-0.2242 0.43158,-0.45093 0.59627,-0.68023 0.0114,0 0.0171,-0.0152 0.0171,-0.0459 l 0.96255,-3.41648 c -0.0738,-0.38215 -0.22289,-0.70953 -0.4472,-0.98215 -0.22431,-0.27259 -0.52954,-0.40889 -0.91569,-0.4089 -0.58491,10e-6 -1.09884,0.293 -1.54178,0.87896 -0.44295,0.58598 -0.78508,1.27131 -1.02644,2.056 -0.24134,0.78469 -0.36202,1.43435 -0.36201,1.94899 -10e-6,0.36178 0.0894,0.68916 0.26832,0.98215 0.17887,0.29299 0.45572,0.43948 0.83052,0.43948 l 0,0 z m 6.94226,-1.03182 c 0,-0.11719 0.0227,-0.26751 0.0681,-0.45095 l 1.25216,-4.52472 -1.84842,0 c -0.0341,0 -0.0653,-0.0191 -0.0937,-0.0573 -0.0283,-0.0382 -0.0426,-0.0777 -0.0426,-0.11846 l 0.0681,-0.24459 c 0.0227,-0.0663 0.071,-0.0994 0.14482,-0.0994 l 1.91657,0 0.71552,-2.5528 c 0.0454,-0.14267 0.12919,-0.25859 0.25129,-0.34777 0.12208,-0.0891 0.26548,-0.13374 0.43016,-0.13375 0.13061,10e-6 0.24419,0.0369 0.34073,0.11082 0.0965,0.0739 0.1448,0.17199 0.1448,0.29426 0,0.0663 -0.006,0.10956 -0.0171,0.12994 l -0.69848,2.4993 1.81436,0 c 0.0398,10e-6 0.0724,0.0165 0.098,0.0498 0.0256,0.0331 0.0384,0.07 0.0384,0.11082 l -0.0681,0.25223 c -1e-5,0.0713 -0.0454,0.10705 -0.1363,0.10705 l -1.8825,0 -1.27771,4.57058 c -0.0795,0.29555 -0.11925,0.5452 -0.11925,0.74903 0,0.45858 0.1732,0.68787 0.5196,0.68787 0.35775,0 0.6857,-0.10827 0.98384,-0.32482 0.29813,-0.21656 0.55226,-0.48278 0.76237,-0.79871 0.21011,-0.31592 0.38615,-0.63947 0.52812,-0.97068 0.0227,-0.0408 0.0568,-0.0611 0.10222,-0.0611 l 0.20444,0 c 0.0852,0 0.12777,0.0509 0.12777,0.15286 -0.2669,0.62673 -0.63318,1.17959 -1.09884,1.65856 -0.46566,0.47897 -1.01365,0.71845 -1.64399,0.71845 -0.44862,0 -0.82485,-0.13376 -1.12865,-0.40126 -0.30381,-0.26751 -0.45572,-0.60254 -0.45572,-1.00507 l 0,0 z"
       id="text3557"
       inkscape:connector-curvature="0" />
    <path
       style="font-size:56px;font-style:normal;font-variant:normal;font-weight:normal;font-stretch:normal;text-align:start;line-height:125%;writing-mode:lr-tb;text-anchor:start;fill:#000000;fill-opacity:1;stroke:none;font-family:Verdana;-inkscape-font-specification:Verdana"
       d="m 424.33327,596.92061 c -2e-5,1.85408 -0.45043,3.5346 -1.35125,5.04158 -0.90085,1.50699 -2.09941,2.67606 -3.59568,3.50719 -1.03827,0.5754 -2.1961,0.99096 -3.47354,1.24669 -1.27747,0.25574 -2.95952,0.3836 -5.04618,0.3836 l -5.74088,0 0,-20.3992 5.67981,0 c 2.21898,3e-5 3.98248,0.14387 5.29047,0.43155 1.30797,0.28772 2.41492,0.68274 3.32085,1.18504 1.54717,0.86769 2.75338,2.02304 3.6186,3.46609 0.86517,1.44307 1.29778,3.15555 1.2978,5.13746 l 0,0 z m -3.16055,-0.0411 c -1e-5,-1.59832 -0.31047,-2.94547 -0.93135,-4.04148 -0.62094,-1.09599 -1.54721,-1.95907 -2.77884,-2.58929 -0.89575,-0.45665 -1.84748,-0.77402 -2.85517,-0.95216 -1.00773,-0.17806 -2.21392,-0.26712 -3.61859,-0.26713 l -2.83991,0 0,15.74122 2.83991,0 c 1.45556,0 2.72538,-0.0959 3.80945,-0.28771 1.08402,-0.1918 2.07901,-0.54798 2.98494,-1.06859 1.12985,-0.64846 1.97724,-1.50241 2.54219,-2.56188 0.5649,-1.05945 0.84736,-2.38378 0.84737,-3.97298 l 0,0 z"
       id="text3574"
       inkscape:connector-curvature="0" />
    <path
       sodipodi:type="arc"
       style="fill:#00000f;fill-opacity:0.94117647;stroke:#000000;stroke-width:9.51715279;stroke-linecap:round;stroke-linejoin:round;stroke-miterlimit:4;stroke-opacity:1;stroke-dasharray:none;stroke-dashoffset:0"
       id="path3582"
       sodipodi:cx="217.44653"
       sodipodi:cy="268.04639"
       sodipodi:rx="100.55331"
       sodipodi:ry="100.55331"
       d="m 317.99984,268.04639 a 100.55331,100.55331 0 1 1 -201.10661,0 100.55331,100.55331 0 1 1 201.10661,0 z"
       transform="matrix(0.27761556,0,0,0.24909851,564.08033,456.29327)" />
    <path
       sodipodi:type="arc"
       style="fill:#ffdd55;fill-opacity:1;stroke:#000000;stroke-width:9.51715279;stroke-linecap:round;stroke-linejoin:round;stroke-miterlimit:4;stroke-opacity:1;stroke-dasharray:none;stroke-dashoffset:0"
       id="path3584"
       sodipodi:cx="217.44653"
       sodipodi:cy="268.04639"
       sodipodi:rx="100.55331"
       sodipodi:ry="100.55331"
       d="m 317.99984,268.04639 a 100.55331,100.55331 0 1 1 -201.10661,0 100.55331,100.55331 0 1 1 201.10661,0 z"
       transform="matrix(0.27761556,0,0,0.24909851,562.44755,455.09799)" />
    <path
       style="font-size:56px;font-style:normal;font-variant:normal;font-weight:normal;font-stretch:normal;text-align:start;line-height:100%;writing-mode:lr-tb;text-anchor:start;fill:#000000;fill-opacity:1;stroke:none;font-family:Verdana;-inkscape-font-specification:Verdana"
       d="m 625.84931,521.47095 c 0.0308,0.0553 0.0205,0.11053 -0.0308,0.16578 l -9.80807,10.55518 13.56499,0 c 0.041,0 0.077,-0.01 0.10783,-0.0276 0.0308,-0.0185 0.0462,-0.0461 0.0462,-0.0829 l 0.72366,-2.85985 c 0,-0.0185 0.0154,-0.0414 0.0462,-0.0691 0.0308,-0.0276 0.077,-0.0414 0.13859,-0.0414 l 0.92384,0 c 0.12312,0 0.18472,0.0461 0.18477,0.13815 l 0,4.94601 c -5e-5,0.10134 -0.0616,0.15196 -0.18477,0.15197 l -18.80012,0 c -0.10264,-10e-6 -0.15396,-0.0506 -0.15396,-0.15197 l 0,-0.56644 c 0,-0.0368 0.0103,-0.0644 0.0308,-0.0829 l 10.2546,-11.06635 c 0.0411,-0.0553 0.0411,-0.11053 0,-0.16579 l -9.74649,-11.85384 c 0,-0.0185 -0.005,-0.0323 -0.0154,-0.0414 -0.0103,-0.01 -0.0154,-0.023 -0.0154,-0.0414 l 0,-0.59407 c 0,-0.092 0.0513,-0.13814 0.15398,-0.13815 l 17.5991,0 c 0.12318,10e-6 0.18477,0.0461 0.18477,0.13815 l 0,4.43483 c 0,0.10134 -0.0616,0.15198 -0.18477,0.15197 l -0.86226,0 c -0.0616,10e-6 -0.10776,-0.01 -0.13853,-0.0276 -0.0308,-0.0185 -0.0462,-0.0461 -0.0462,-0.0829 l -0.93921,-3.20523 c -6e-5,-0.0368 -0.0154,-0.0644 -0.0462,-0.0829 -0.0308,-0.0183 -0.0565,-0.0276 -0.077,-0.0276 l -11.60958,0 8.69948,10.52755 0,0 z"
       id="path3586"
       inkscape:connector-curvature="0" />
    <path
       style="fill:#000000;fill-opacity:1;fill-rule:evenodd;stroke:none"
       d="m 549.98782,443.58489 0,1.48544 c 36.80792,0 55.22974,0 64.43172,0 4.60098,0 6.89809,0 8.04833,0 0.57512,0 0.86788,0 1.01167,0 0.0719,0 0.0945,0 0.11241,0 0.009,0 0.0202,0 0.0225,0 l 0,-0.74272 0,-0.74272 c 0,0 -0.0108,0 -73.6266,0 z"
       id="path3588"
       inkscape:connector-curvature="0" />
    <path
       style="font-size:56px;font-style:normal;font-variant:normal;font-weight:normal;font-stretch:normal;text-align:start;line-height:100%;writing-mode:lr-tb;text-anchor:start;fill:#000000;fill-opacity:1;stroke:none;font-family:Verdana;-inkscape-font-specification:Verdana"
       d="m 303.91937,513.32382 c -1.18656,0 -2.11563,-0.39741 -2.78719,-1.19222 -0.67156,-0.79481 -1.00734,-1.74304 -1.00734,-2.8447 0,-1.06467 0.29045,-2.0739 0.87138,-3.02767 0.58092,-0.95378 1.37402,-1.72086 2.37931,-2.30127 1.00528,-0.58039 2.09708,-0.87059 3.27541,-0.8706 0.71689,1e-5 1.33488,0.17006 1.85402,0.51016 0.51911,0.34012 0.77868,0.81331 0.77868,1.41956 0,1.23475 -0.6798,2.02031 -2.03941,2.35673 -1.35962,0.33641 -2.99938,0.50462 -4.91931,0.50461 l -0.0494,0 c -0.24721,0.89463 -0.38317,1.67465 -0.40789,2.34008 0,0.68021 0.1751,1.27724 0.52531,1.79109 0.35019,0.51387 0.87549,0.77079 1.5759,0.77079 0.99705,0 1.95289,-0.21441 2.86754,-0.64324 0.91464,-0.42882 1.67272,-1.00922 2.27425,-1.7412 0.0165,-0.0296 0.0659,-0.0444 0.14832,-0.0444 0.0906,0 0.17303,0.037 0.2472,0.11089 0.0742,0.0739 0.11123,0.14419 0.11124,0.21073 -10e-6,0.0444 -0.008,0.0739 -0.0247,0.0887 -0.42849,0.52496 -0.93938,0.97967 -1.53265,1.36413 -0.59328,0.38447 -1.24425,0.68021 -1.95289,0.88724 -0.70865,0.20701 -1.43788,0.31052 -2.18773,0.31052 l 0,0 z m -1.49556,-5.98883 c 0.98879,10e-6 1.89521,-0.0388 2.71921,-0.11645 0.82399,-0.0776 1.57383,-0.28834 2.24953,-0.63215 0.67567,-0.3438 1.01352,-0.8669 1.01352,-1.56931 0,-0.26616 -0.0845,-0.50645 -0.25339,-0.72087 -0.16891,-0.2144 -0.38934,-0.3789 -0.66125,-0.49351 -0.27193,-0.1146 -0.56857,-0.1719 -0.88991,-0.17191 -1.06298,1e-5 -1.94673,0.36045 -2.65125,1.08131 -0.70452,0.7209 -1.21335,1.59518 -1.52646,2.62289 l 0,0 z m 14.74554,11.42312 c -1.20304,-0.99073 -2.08679,-2.20329 -2.65123,-3.63764 -0.56444,-1.43437 -0.84666,-2.96854 -0.84666,-4.60253 0,-1.36781 0.1648,-2.73564 0.49441,-4.10345 0.32959,-1.36782 0.81575,-2.68942 1.45848,-3.96483 0.64271,-1.27538 1.44613,-2.45836 2.41021,-3.54894 0.96408,-1.09053 2.06001,-2.02028 3.28778,-2.78924 0.033,-0.0296 0.0742,-0.0444 0.1236,-0.0444 l 0.2472,0 c 0.12359,2e-5 0.18539,0.0591 0.1854,0.17745 -10e-6,0.0739 -0.0288,0.12202 -0.0865,0.14418 -1.12065,0.83549 -2.10534,1.82439 -2.95405,2.96667 -0.84873,1.14234 -1.55121,2.37892 -2.10739,3.70976 -0.55621,1.33086 -0.97234,2.68758 -1.24837,4.07018 -0.27604,1.38261 -0.41407,2.74304 -0.41406,4.08128 -1e-5,3.10531 0.86108,5.52672 2.58325,7.26422 0.0494,0.0444 0.0742,0.0924 0.0742,0.14418 -10e-6,0.11829 -0.0618,0.17743 -0.18541,0.17745 l -0.2472,0 c -0.0494,-2e-5 -0.0906,-0.0148 -0.1236,-0.0444 l 0,0 z m 4.44963,-7.47493 c 0,-0.17006 0.033,-0.38817 0.0989,-0.65433 l 1.81693,-6.56553 -2.68213,0 c -0.0495,1e-5 -0.0948,-0.0277 -0.13597,-0.0832 -0.0412,-0.0555 -0.0618,-0.11274 -0.0618,-0.1719 l 0.0989,-0.35489 c 0.033,-0.0961 0.103,-0.14416 0.21012,-0.14417 l 2.78101,0 1.03825,-3.70421 c 0.0659,-0.207 0.18746,-0.37521 0.36462,-0.5046 0.17715,-0.12939 0.38522,-0.19407 0.62418,-0.19409 0.18951,2e-5 0.35433,0.0536 0.4944,0.16081 0.14008,0.10727 0.21012,0.24956 0.21013,0.42699 -10e-6,0.0961 -0.008,0.15897 -0.0247,0.18853 l -1.01354,3.62657 2.6327,0 c 0.0577,10e-6 0.10504,0.0241 0.14214,0.0721 0.0371,0.0481 0.0556,0.10166 0.0556,0.16081 l -0.0989,0.366 c -1e-5,0.10349 -0.0659,0.15527 -0.19776,0.15526 l -2.73157,0 -1.85401,6.63207 c -0.11536,0.42883 -0.17304,0.79111 -0.17304,1.08686 0,0.66542 0.25132,0.99813 0.75396,0.99813 0.51913,0 0.99498,-0.15711 1.42759,-0.47133 0.4326,-0.31423 0.80133,-0.70056 1.10623,-1.15895 0.30487,-0.45841 0.56032,-0.9279 0.76632,-1.40849 0.033,-0.0591 0.0824,-0.0887 0.14832,-0.0887 l 0.29663,0 c 0.1236,0 0.1854,0.0739 0.18541,0.2218 -0.38729,0.90942 -0.91877,1.71163 -1.59444,2.40662 -0.6757,0.69501 -1.47086,1.04251 -2.38549,1.04251 -0.65097,0 -1.19687,-0.1941 -1.63772,-0.58225 -0.44084,-0.38817 -0.66126,-0.8743 -0.66126,-1.45839 l 0,0 z m 7.9846,7.51931 c -0.11536,-2e-5 -0.17305,-0.0591 -0.17305,-0.17745 0,-0.0814 0.0165,-0.1294 0.0494,-0.14418 1.13712,-0.84288 2.13416,-1.84471 2.99113,-3.0055 0.85697,-1.1608 1.55943,-2.39368 2.10739,-3.69865 0.54797,-1.30498 0.9579,-2.64321 1.22984,-4.01474 0.2719,-1.3715 0.40786,-2.74117 0.40787,-4.109 -10e-6,-0.87983 -0.0824,-1.75598 -0.2472,-2.62843 -0.1648,-0.87243 -0.44084,-1.70606 -0.82811,-2.50089 -0.3873,-0.7948 -0.88994,-1.50643 -1.50795,-2.1349 -0.033,-0.0591 -0.0494,-0.10716 -0.0494,-0.14418 0,-0.11828 0.0577,-0.17743 0.17304,-0.17745 l 0.2472,0 c 0.0412,2e-5 0.0783,0.0148 0.11124,0.0444 0.80752,0.67285 1.4729,1.45287 1.99615,2.34008 0.52324,0.88726 0.90227,1.82624 1.13713,2.81697 0.23483,0.99076 0.35225,2.02217 0.35226,3.09422 -1e-5,1.82623 -0.29253,3.64876 -0.87757,5.46758 -0.58505,1.81884 -1.45231,3.50458 -2.60179,5.05724 -1.14949,1.55265 -2.53587,2.84283 -4.15915,3.87054 -0.033,0.0296 -0.0701,0.0444 -0.11125,0.0444 l -0.2472,0 z"
       id="text3590"
       inkscape:connector-curvature="0" />
    <path
       inkscape:connector-curvature="0"
       id="path4632"
       d="m 551.32902,521.75155 0,1.46538 c 20.75664,-1e-5 31.13418,0 36.32334,0 2.59458,0 3.88897,0 4.53762,0 0.32432,0 0.50009,0 0.58118,0 0.0406,0 0.0569,0 0.067,0 l 0,-0.72265 0,-0.74273 c 0,0 0.004,-10e-6 -41.50919,0 z"
       style="fill:#000000;fill-opacity:1;fill-rule:evenodd;stroke:none" />
    <path
       inkscape:connector-curvature="0"
       id="path8135"
       style="font-size:12px;fill-rule:evenodd;stroke-width:0.625;stroke-linejoin:round"
       d="m 575.25442,515.93045 19.77238,6.52944 -19.77238,6.52943 c 3.1588,-3.85497 3.14059,-9.12925 0,-13.05887 z" />
    <path
       style="fill:#000000;fill-opacity:1;fill-rule:evenodd;stroke:none"
       d="m 549.63018,598.89442 0,1.46538 c 37.32493,0 55.9837,0 65.31494,0 4.66562,0 7.01474,0 8.18114,0 0.5832,0 0.86008,0 1.00588,0 0.0729,0 0.11588,0 0.13412,0 0.009,0 0.0201,0 0.0224,0 l 0,-0.74273 0,-0.72265 c 0,0 -0.009,2e-5 -74.65842,0 z"
       id="path4721"
       inkscape:connector-curvature="0" />
    <path
       inkscape:connector-curvature="0"
       id="path4723"
       d="m 622.8357,550.74537 c 0,0 0,-0.0123 0,49.33581 l 1.63176,0 c 0,-24.67408 0,-36.99536 0,-43.16388 0,-3.08427 0,-4.62937 0,-5.40044 0,-0.38553 0,-0.5762 0,-0.67258 0,-0.0482 0,-0.0869 0,-0.0989 l -0.80471,0 -0.82705,0 z"
       style="fill:#000000;fill-opacity:1;fill-rule:evenodd;stroke:none" />
    <path
       inkscape:connector-curvature="0"
       id="path8127"
       style="font-size:12px;fill-rule:evenodd;stroke-width:0.625;stroke-linejoin:round"
       d="m 616.35336,566.30703 7.27081,-17.49817 7.2708,17.49817 c -4.29268,-2.79548 -10.1658,-2.77938 -14.54161,0 z" />
    <path
       style="font-size:28px;font-style:normal;font-weight:normal;fill:#000000;fill-opacity:1;stroke:none;font-family:Bitstream Vera Sans"
       d="m 604.56216,494.8046 0,-4.7206 -5.22176,0 0,-1.97279 5.22176,0 0,-4.68537 2.22481,0 0,4.68537 5.22177,0 0,1.97279 -5.22177,0 0,4.7206 -2.22481,0 z"
       id="text7079"
       inkscape:connector-curvature="0" />
    <g
       id="g2515"
       transform="matrix(0.79405753,0,0,0.71309137,29.52234,113.4375)">
      <rect
         style="fill:#000000;fill-opacity:1;stroke:#000000;stroke-width:2.49999976;stroke-linecap:round;stroke-linejoin:round;stroke-miterlimit:4;stroke-opacity:1;stroke-dasharray:none;stroke-dashoffset:0"
         id="rect7089"
         width="135.67393"
         height="62.368107"
         x="825.07281"
         y="544.75092" />
      <rect
         y="540.901"
         x="821.21967"
         height="62.368107"
         width="135.67393"
         id="rect7083"
         style="fill:#f2f2f2;fill-opacity:1;stroke:#000000;stroke-width:2.49999976;stroke-linecap:round;stroke-linejoin:round;stroke-miterlimit:4;stroke-opacity:1;stroke-dasharray:none;stroke-dashoffset:0" />
      <text
         xml:space="preserve"
         style="font-size:24px;font-style:normal;font-weight:bold;line-height:87.99999952%;letter-spacing:0px;word-spacing:0px;fill:#000000;fill-opacity:1;stroke:none;font-family:Sans;-inkscape-font-specification:Sans Bold"
         x="835.46851"
         y="569.25275"
         id="text3133"
         sodipodi:linespacing="88%"><tspan
           sodipodi:role="line"
           id="tspan3135"
           x="835.46851"
           y="569.25275"
           style="font-size:24px;font-weight:bold;line-height:87.99999952%;-inkscape-font-specification:Sans Bold">Plant /</tspan><tspan
           sodipodi:role="line"
           x="835.46851"
           y="590.37274"
           style="font-size:24px;font-weight:bold;line-height:87.99999952%;-inkscape-font-specification:Sans Bold"
           id="tspan3137">Process</tspan></text>
    </g>
    <path
       style="fill:#000000;fill-opacity:1;fill-rule:evenodd;stroke:none"
       d="m 820.9264,523.25705 c 0,72.29995 0,108.44899 0,126.52399 0,9.03748 0,13.55862 0,15.818 0,1.12969 0,1.70486 0,1.98728 0,0.14122 0,0.20559 0,0.24089 0,0.0177 0,0.0156 0,0.0201 0,0.002 0,0.0195 0,0.0201 l 1.6317,0 c 0,0 0,-0.0108 0,-144.61031 l -1.6317,0 z"
       id="path7109"
       inkscape:connector-curvature="0" />
    <path
       inkscape:connector-curvature="0"
       id="path7634"
       d="m 252.67298,552.0627 c 0,0 1e-5,-0.004 0,116.12586 l 1.65411,0 c 1e-5,-58.06523 0,-87.09632 0,-101.61263 0,-7.25816 0,-10.89206 0,-12.7066 0,-0.90727 0,-1.359 0,-1.58582 0,-0.11341 0,-0.17238 0,-0.20073 0,-0.0141 0,-0.0165 0,-0.0201 l -1.65411,0 z"
       style="fill:#000000;fill-opacity:1;fill-rule:evenodd;stroke:none" />
    <path
       inkscape:connector-curvature="0"
       id="path8119"
       style="font-size:12px;fill-rule:evenodd;stroke-width:0.625;stroke-linejoin:round"
       d="m 246.1993,567.85813 7.27081,-17.7563 7.2708,17.7563 c -4.29268,-2.83671 -10.16582,-2.82037 -14.54161,0 z" />
    <path
       style="font-size:56px;font-style:normal;font-variant:normal;font-weight:normal;font-stretch:normal;text-align:start;line-height:125%;writing-mode:lr-tb;text-anchor:start;fill:#000000;fill-opacity:1;stroke:none;font-family:Verdana;-inkscape-font-specification:Verdana"
       d="m 238.20383,557.86814 -9.52742,0 0,-2.47968 9.52742,0 0,2.47968 z"
       id="text7640"
       inkscape:connector-curvature="0" />
    <path
       inkscape:connector-curvature="0"
       id="path2489"
       d="m 623.56307,494.03438 c 0,0 0,0.0125 0,-50.0636 l -1.63176,0 c 0,25.03807 0,37.54111 0,43.80063 0,3.12976 0,4.69765 0,5.48009 0,0.39122 0,0.5847 0,0.6825 0,0.0489 0,0.0882 0,0.10037 l 0.8047,0 0.82706,0 z"
       style="fill:#000000;fill-opacity:1;fill-rule:evenodd;stroke:none" />
    <path
       inkscape:connector-curvature="0"
       id="path2491"
       style="font-size:12px;fill-rule:evenodd;stroke-width:0.625;stroke-linejoin:round"
       d="m 630.0454,478.24316 -7.27081,17.7563 -7.2708,-17.7563 c 4.29268,2.83671 10.16582,2.82037 14.54161,0 z" />
    <path
       style="font-size:56px;font-style:normal;font-variant:normal;font-weight:normal;font-stretch:normal;text-align:start;line-height:100%;writing-mode:lr-tb;text-anchor:start;fill:#000000;fill-opacity:1;stroke:none;font-family:Verdana;-inkscape-font-specification:Verdana"
       d="m 479.78287,538.78283 c -0.40712,0 -0.70199,-0.12795 -0.88459,-0.38388 -0.18263,-0.2559 -0.27394,-0.57502 -0.27394,-0.95733 0,-0.40738 0.0681,-0.85446 0.20414,-1.34123 0.13609,-0.48677 0.32511,-0.8743 0.56705,-1.1626 0.14655,-0.17131 0.32626,-0.30711 0.53912,-0.40738 0.21286,-0.10026 0.43329,-0.15042 0.66126,-0.15042 0.40479,0 0.69907,0.12952 0.88285,0.38857 0.18378,0.25906 0.27567,0.58079 0.27568,0.96519 -10e-6,0.26323 -0.0291,0.55153 -0.0872,0.8649 -0.0582,0.31337 -0.14598,0.6163 -0.26346,0.90877 -0.11748,0.29248 -0.25764,0.53378 -0.42049,0.72389 -0.14656,0.16713 -0.32626,0.30083 -0.53913,0.40111 -0.21286,0.10026 -0.43328,0.15041 -0.66125,0.15041 l 0,0 z m 0.0279,-0.15355 c 0.23497,0 0.43212,-0.0747 0.59148,-0.22406 0.15936,-0.14937 0.28322,-0.33425 0.37163,-0.55466 0.0884,-0.2204 0.15063,-0.41782 0.18669,-0.59226 0.0361,-0.17445 0.0832,-0.42776 0.14133,-0.75993 0.10002,-0.50975 0.15004,-0.90146 0.15005,-1.17514 -1e-5,-0.14623 -0.0221,-0.27785 -0.0663,-0.39484 -0.0442,-0.117 -0.11808,-0.21205 -0.22159,-0.28518 -0.10352,-0.0731 -0.23554,-0.10966 -0.39605,-0.10967 -0.23031,10e-6 -0.42283,0.0673 -0.57752,0.20213 -0.1547,0.13474 -0.27568,0.30448 -0.36292,0.50922 -0.0872,0.20473 -0.14422,0.37135 -0.17098,0.49983 -0.0267,0.12848 -0.0762,0.3797 -0.1483,0.75365 -0.0489,0.27158 -0.0896,0.51967 -0.12214,0.74425 -0.0326,0.22459 -0.0489,0.41522 -0.0489,0.5719 0,0.14206 0.0209,0.27421 0.0628,0.39642 0.0419,0.12222 0.11341,0.22249 0.21462,0.30083 0.10119,0.0784 0.2332,0.11751 0.39604,0.11751 l 0,0 z"
       id="text2503"
       inkscape:connector-curvature="0" />
    <path
       style="font-size:56px;font-style:normal;font-variant:normal;font-weight:normal;font-stretch:normal;text-align:start;line-height:100%;writing-mode:lr-tb;text-anchor:start;fill:#000000;fill-opacity:1;stroke:none;font-family:Verdana;-inkscape-font-specification:Verdana"
       d="m 480.71926,504.76733 c 0,-0.0952 0.005,-0.16714 0.0155,-0.21588 l 0.36446,-1.96727 -0.65912,0 0.031,-0.17061 c 0.23263,0 0.43747,-0.0708 0.61453,-0.2124 0.17705,-0.1416 0.31793,-0.31569 0.42262,-0.52228 0.10468,-0.20659 0.18029,-0.4213 0.22682,-0.64415 l 0.20549,0 -0.24426,1.31267 1.10113,0 -0.0465,0.23677 -1.09725,0 -0.37222,1.98816 c -0.0103,0.0557 -0.0207,0.14392 -0.031,0.26462 0,0.12999 0.0317,0.24084 0.095,0.33253 0.0633,0.0917 0.1635,0.13753 0.30049,0.13753 0.16026,0 0.30372,-0.0732 0.43037,-0.21936 0.0569,-0.072 0.0963,-0.13115 0.11827,-0.17758 0.022,-0.0464 0.0433,-0.10673 0.064,-0.18105 0.0207,-0.0743 0.0414,-0.1358 0.062,-0.18454 l 0.0737,-0.41436 0.20549,0 -0.0775,0.43524 c -0.0233,0.1416 -0.0776,0.28553 -0.16284,0.43176 -0.0853,0.14624 -0.19387,0.26521 -0.3257,0.3569 -0.13182,0.0917 -0.27916,0.13753 -0.442,0.13753 -0.26882,0 -0.48142,-0.0621 -0.6378,-0.18628 -0.15639,-0.12419 -0.23458,-0.30351 -0.23458,-0.53795 l 0,0 z"
       id="text2507"
       inkscape:connector-curvature="0" />
  </g>
</svg>
